<?xml version="1.0" standalone="no"?>
<!DOCTYPE svg PUBLIC "-//W3C//DTD SVG 1.1//EN" "http://www.w3.org/Graphics/SVG/1.1/DTD/svg11.dtd" >
<svg xmlns="http://www.w3.org/2000/svg" xmlns:xlink="http://www.w3.org/1999/xlink" version="1.1">
<metadata>
Created by FontForge 20170731 at Fri Jan  1 02:30:17 1904
 By Aleksey,,,
Copyright (c) 1992 Adobe Systems Incorporated.  All Rights Reserved.Calvert is a trademark of The Monotype Corporation plc registered in certain countries.
</metadata>
<defs>
<font id="CalvertMT-Light" horiz-adv-x="604" >
  <font-face 
    font-family="CalvertMT-Light"
    font-weight="300"
    font-stretch="normal"
    units-per-em="1000"
    panose-1="2 2 4 0 0 0 0 0 0 0"
    ascent="800"
    descent="-200"
    x-height="539"
    cap-height="705"
    bbox="-49 -250 1127 915"
    underline-thickness="50"
    underline-position="-150"
    unicode-range="U+0020-2122"
  />
<missing-glyph horiz-adv-x="502" 
d="M-1 0h500v500h-500v-500zM9 10v480h480v-480h-480z" />
    <glyph glyph-name=".notdef" horiz-adv-x="502" 
d="M-1 0h500v500h-500v-500zM9 10v480h480v-480h-480z" />
    <glyph glyph-name=".null" horiz-adv-x="0" 
 />
    <glyph glyph-name="nonmarkingreturn" horiz-adv-x="333" 
 />
    <glyph glyph-name="space" unicode=" " horiz-adv-x="278" 
 />
    <glyph glyph-name="exclam" unicode="!" horiz-adv-x="250" 
d="M95 189h60l14 549h-85zM79 0h93v91h-93v-91z" />
    <glyph glyph-name="quotedbl" unicode="&#x22;" horiz-adv-x="313" 
d="M58 550h49l16 193h-81zM205 550h49l16 193h-81z" />
    <glyph glyph-name="numbersign" unicode="#" horiz-adv-x="668" 
d="M44 415h147l-38 -181h-109v-60h96l-41 -196h60l41 196h207l-42 -196h60l41 196h158v60h-146l37 181h109v60h-97l42 197h-60l-41 -197h-206l42 197h-59l-42 -197h-159v-60zM456 415l-37 -180h-207l38 180h206z" />
    <glyph glyph-name="dollar" unicode="$" horiz-adv-x="573" 
d="M265 403q-61 24 -83.5 48t-22.5 65q0 50 28.5 78t77.5 31v-222zM329 296q59 -19 82.5 -44.5t23.5 -69.5q0 -88 -106 -115v229zM503 504q-4 88 -53 138.5t-122 60.5v39h-62v-40q-27 -1 -59.5 -13.5t-61.5 -37t-47 -59.5t-18 -79q0 -45 16.5 -78t43 -54t55 -34t69.5 -27
l2 -1v-256q-33 2 -55.5 13.5t-35.5 30t-20.5 40.5t-12.5 52h-81q0 -21 11.5 -55t35.5 -69t63.5 -60t94.5 -28v-71h63v73q35 5 68 20t59.5 39.5t42 57.5t15.5 71q0 47 -13.5 79.5t-38 54t-55 35.5t-78.5 33v243q44 -7 65.5 -33.5t31.5 -84.5h77z" />
    <glyph glyph-name="percent" unicode="%" horiz-adv-x="833" 
d="M643 304q46 0 70.5 -37t24.5 -106q0 -68 -23.5 -106t-66.5 -38q-94 0 -94 142q0 145 89 145zM647 353q-70 0 -110 -51.5t-40 -142.5q0 -88 40.5 -139.5t111.5 -51.5q67 0 107 51t40 135q0 91 -40.5 145t-108.5 54zM188 698q44 0 68.5 -38.5t24.5 -108.5q0 -141 -96 -141
q-43 0 -66.5 37.5t-23.5 104.5q0 71 24 108.5t69 37.5zM186 747q-71 0 -109.5 -52t-38.5 -149q0 -85 41.5 -135t111.5 -50q68 0 107.5 51t39.5 139q0 94 -39.5 145t-112.5 51zM191 -31h56l396 776h-55z" />
    <glyph glyph-name="ampersand" unicode="&#x26;" horiz-adv-x="667" 
d="M256 447q-37 44 -52 70.5t-15 49.5q0 34 26.5 60t61.5 26q37 0 61 -25t24 -63q0 -33 -21.5 -57t-84.5 -61zM413 124q-35 -33 -62.5 -46t-63.5 -13q-29 0 -56 11.5t-47.5 32t-32 46.5t-11.5 55q0 44 21.5 74.5t74.5 62.5zM480 40q26 -32 41 -41t42 -9q23 0 69 9l20 3
l-12 72q-4 -1 -14 -3q-18 -3 -26.5 -4.5t-16.5 -1.5q-17 0 -27.5 9t-38.5 44q-3 3 -4 5q27 42 36.5 69t13.5 72h77v72h-150q0 -55 -7 -87t-23 -60l-158 199h1q28 16 50 29.5t42.5 33.5t33 47.5t12.5 62.5q0 71 -47 116t-122 45q-70 0 -116.5 -45.5t-46.5 -114.5
q0 -36 16 -67.5t64 -87.5h-1q-25 -16 -45 -31t-40 -37.5t-33 -54.5t-13 -71q0 -47 17 -87.5t48.5 -71.5t73.5 -47.5t91 -16.5q61 0 99.5 19.5t75.5 50.5l1 1z" />
    <glyph glyph-name="quotesingle" unicode="'" horiz-adv-x="250" 
d="M101 549h49l16 195h-81z" />
    <glyph glyph-name="parenleft" unicode="(" horiz-adv-x="344" 
d="M204 714q-79 -120 -118 -219.5t-39 -209.5q0 -64 13.5 -123.5t36 -112t48 -96.5t61.5 -101l24 -37h70v1q-33 49 -53 81t-37 66q-37 76 -56 157t-19 163t19 163.5t55 156.5q8 17 15.5 30.5t17 30t22.5 36t33 48.5h-70z" />
    <glyph glyph-name="parenright" unicode=")" horiz-adv-x="344" 
d="M120 -185l25 40q37 58 61.5 102t45.5 95t33.5 109.5t12.5 122.5q0 69 -18.5 139t-52.5 140q-11 22 -20 39t-20 35t-28.5 44.5t-44.5 66.5h-70q61 -88 91 -149q37 -75 56 -156t19 -162q0 -79 -15.5 -149t-40.5 -128t-49.5 -99t-57.5 -90h73z" />
    <glyph glyph-name="asterisk" unicode="*" horiz-adv-x="469" 
d="M109 715l85 -137l-164 6v-58l162 5l-86 -139l47 -29l80 149l75 -150l52 29l-86 140l165 -4v57l-169 -7l89 139l-51 30l-76 -146l-73 147z" />
    <glyph glyph-name="plus" unicode="+" horiz-adv-x="667" 
d="M67 291h233v-232h64v232h235v64h-235v234h-64v-234h-233v-64z" />
    <glyph glyph-name="comma" unicode="," horiz-adv-x="250" 
d="M79 0h42q-1 -38 -9.5 -50.5t-33.5 -15.5v-39q50 6 70.5 28.5t20.5 71.5v94h-90v-89z" />
    <glyph glyph-name="hyphen" unicode="-" horiz-adv-x="344" 
d="M62 236h220v66h-220v-66z" />
    <glyph glyph-name="period" unicode="." horiz-adv-x="250" 
d="M79 0h93v91h-93v-91z" />
    <glyph glyph-name="slash" unicode="/" horiz-adv-x="417" 
d="M33 -181h64l287 928h-63z" />
    <glyph glyph-name="zero" unicode="0" horiz-adv-x="573" 
d="M287 -13q36 0 69 11.5t56 27.5q62 41 93.5 125.5t31.5 207.5q0 108 -23.5 182t-72.5 121q-32 30 -72.5 46t-82.5 16q-117 0 -183.5 -99.5t-66.5 -274.5q0 -106 23 -178t72 -121q30 -29 68.5 -46.5t87.5 -17.5zM125 344q0 102 16.5 164t54.5 101q17 18 42 28t51 10
q25 0 49.5 -10.5t42.5 -29.5q36 -37 51.5 -96t15.5 -155t-15 -154t-50 -95q-41 -43 -100 -43q-36 0 -66 20q-47 30 -69.5 93.5t-22.5 166.5z" />
    <glyph glyph-name="one" unicode="1" horiz-adv-x="573" 
d="M137 611v-92l117 100v-550h-103v-69h287v69h-97v643h-87z" />
    <glyph glyph-name="two" unicode="2" horiz-adv-x="573" 
d="M237 161q27 28 42.5 43t18.5 18l12 12q66 65 104 105.5t59 71t29.5 57.5t8.5 60q0 42 -16 78.5t-45 63t-69 41t-87 14.5q-129 0 -195 -89q-22 -31 -32 -61t-16 -83h91q1 19 2 29.5t3 18.5q11 50 48.5 79.5t89.5 29.5q59 0 97.5 -34.5t38.5 -87.5q0 -38 -17 -69.5
t-63 -80.5l-280 -298v-79h450v179h-77v-108h-285z" />
    <glyph glyph-name="three" unicode="3" horiz-adv-x="573" 
d="M66 536h78v101h266l-227 -230l48 -51q26 14 40.5 18t31.5 4q61 0 101.5 -42.5t40.5 -106.5q0 -34 -12.5 -65t-34.5 -54t-51 -36t-61 -13q-16 0 -37.5 4.5t-47.5 20t-47 48.5t-28 87h-90q3 -24 5.5 -37t6.5 -24q24 -77 90.5 -126t148.5 -49q51 0 95.5 18.5t78 52t52 77.5
t18.5 95q0 96 -62 156q-29 28 -63 40t-89 13l190 191v80h-441v-172z" />
    <glyph glyph-name="four" unicode="4" horiz-adv-x="573" 
d="M21 297v-82h308v-145h-84v-70h256v70h-86v145h132v71h-132v285l-86 -113v-172h-218l325 425h-106z" />
    <glyph glyph-name="five" unicode="5" horiz-adv-x="573" 
d="M59 320h85q4 13 7 19l6 12q18 31 52.5 50t71.5 19q67 0 111 -48t44 -121q0 -86 -41.5 -138t-109.5 -52q-72 0 -114 50q-10 13 -16.5 28t-14.5 44h-90q7 -26 10 -35.5t7 -20.5q26 -66 83.5 -104t131.5 -38q51 0 95.5 19.5t77.5 55t51 83.5t18 103q0 52 -16.5 96.5
t-46 77.5t-70 51t-86.5 18q-47 0 -79 -13t-73 -50l15 212h254v-84h79v154h-414z" />
    <glyph glyph-name="six" unicode="6" horiz-adv-x="573" 
d="M294 61q-61 0 -102.5 49.5t-41.5 122.5q0 77 41.5 127t105.5 50t103.5 -47.5t39.5 -123.5q0 -78 -41 -128t-105 -50zM522 545q-4 23 -12 47q-22 60 -76 95.5t-124 35.5q-60 0 -109.5 -26t-84.5 -76t-53.5 -119.5t-18.5 -154.5q0 -169 67.5 -266t185.5 -97q48 0 90.5 19
t74.5 53t49.5 79.5t17.5 97.5t-16.5 96.5t-46 78t-70 51.5t-86.5 18q-78 0 -139 -56q-13 -12 -21 -23.5t-20 -34.5q1 42 3 64t6 41q17 83 63.5 131.5t108.5 48.5q95 0 122 -103h89z" />
    <glyph glyph-name="seven" unicode="7" horiz-adv-x="573" 
d="M126 510v124h316l-251 -564h-86v-70h273v70h-86l239 571v66h-484v-197h79z" />
    <glyph glyph-name="eight" unicode="8" horiz-adv-x="573" 
d="M288 67q-64 0 -108 38t-44 93q0 63 42 101.5t111 38.5q65 0 107 -38t42 -97q0 -60 -42 -98t-108 -38zM288 408q-60 0 -97 34t-37 87t38 87t96 34t95.5 -33.5t37.5 -84.5q0 -56 -36 -90t-97 -34zM404 376q52 23 78 59.5t26 95.5q0 40 -16.5 76t-46.5 63t-69.5 42t-84.5 15
q-47 0 -88.5 -15t-72.5 -42t-48 -63.5t-17 -78.5q0 -54 27 -91.5t78 -60.5q-4 -2 -5 -2q-16 -7 -22.5 -10t-13.5 -8q-37 -22 -60.5 -65t-23.5 -87q0 -46 18 -85.5t50.5 -68.5t77 -45t96.5 -16t96.5 16t77 45t50 69t17.5 87q0 41 -13 71t-32.5 49.5t-38 30t-40.5 19.5z" />
    <glyph glyph-name="nine" unicode="9" horiz-adv-x="573" 
d="M280 649q62 0 102.5 -50.5t40.5 -128.5q0 -35 -11.5 -66t-31.5 -54t-47 -36t-57 -13q-64 0 -103.5 48t-39.5 126q0 75 42 124.5t105 49.5zM47 167v-1q6 -26 16.5 -53t34 -56.5t65 -49.5t102.5 -20q59 0 107.5 26.5t83.5 75.5t53.5 118t18.5 153q0 105 -22.5 178.5
t-69.5 121.5q-66 66 -159 66q-48 0 -91 -19t-75 -52.5t-50 -79t-18 -95.5q0 -53 16.5 -98t46 -78.5t70 -52t87.5 -18.5q72 0 130 49q14 12 24 25t25 38q-1 -60 -6.5 -91.5t-20.5 -68.5q-51 -122 -155 -122q-95 0 -122 104h-91z" />
    <glyph glyph-name="colon" unicode=":" horiz-adv-x="250" 
d="M80 0h91v91h-91v-91zM81 444h90v91h-90v-91z" />
    <glyph glyph-name="semicolon" unicode=";" horiz-adv-x="250" 
d="M80 446h91v91h-91v-91zM81 0h41q-1 -39 -8.5 -50.5t-33.5 -13.5v-39q50 4 71 27.5t21 76.5v91h-91v-92z" />
    <glyph glyph-name="less" unicode="&#x3c;" horiz-adv-x="667" 
d="M598 141l-443 183l443 182v70l-529 -223v-58l529 -223v69z" />
    <glyph glyph-name="equal" unicode="=" horiz-adv-x="667" 
d="M68 408h531v64h-531v-64zM68 179h531v64h-531v-64z" />
    <glyph glyph-name="greater" unicode="&#x3e;" horiz-adv-x="667" 
d="M68 506l444 -183l-444 -182v-69l530 223v57l-530 224v-70z" />
    <glyph glyph-name="question" unicode="?" horiz-adv-x="542" 
d="M141 520q3 23 8.5 47t20 49.5t41.5 43t68 17.5q56 0 92.5 -38.5t36.5 -97.5q0 -64 -41 -107q-22 -24 -52 -35t-82 -16v-194h78v154q27 8 42 13.5t26 10.5q50 24 79 71t29 103q0 43 -16 80t-44.5 65t-67 43t-83.5 15q-109 0 -167 -78q-22 -30 -32.5 -61t-17.5 -85h82z
M226 0h91v92h-91v-92z" />
    <glyph glyph-name="at" unicode="@" horiz-adv-x="800" 
d="M541 413q-10 18 -15 26t-12 15q-22 25 -54.5 39t-69.5 14q-48 0 -92.5 -24t-79.5 -66t-55 -95.5t-20 -111.5q0 -92 47.5 -151t120.5 -59q42 0 84 21t84 69q-4 -23 -4 -36q0 -54 57 -54q47 0 93 26t82.5 72t57.5 103.5t21 116.5q0 81 -25.5 148.5t-72.5 115.5t-113.5 73.5
t-146.5 25.5q-113 0 -196.5 -39t-134.5 -102t-75 -137.5t-24 -148.5q0 -93 30 -171t85.5 -134.5t132.5 -87t167 -30.5q83 0 151 18.5t127 57.5q36 23 57.5 45.5t53.5 70.5h-50q-21 -26 -31 -37.5t-21 -20.5q-51 -46 -122.5 -70.5t-157.5 -24.5q-84 0 -154.5 27.5t-121 78
t-78 120.5t-27.5 154q0 83 27.5 155t78.5 125t120 82t149 29q139 0 220 -64q53 -41 82 -109t29 -150q0 -56 -18.5 -106.5t-48.5 -88t-63 -58.5t-61 -21q-24 0 -24 20q0 2 1 7q0 5 1 10l4 22l83 392h-61zM518 320q-4 -57 -21 -107.5t-43.5 -88t-59 -58t-66.5 -20.5
q-53 0 -88 45t-35 114q0 33 11 77t34 86t59.5 69t85.5 27q54 0 87.5 -37.5t35.5 -101.5v-5z" />
    <glyph glyph-name="A" unicode="A" horiz-adv-x="719" 
d="M473 269h-232l114 362zM92 70h-64v-70h128l62 200h278l64 -200h131v70h-67l-218 635h-102z" />
    <glyph glyph-name="B" unicode="B" horiz-adv-x="646" 
d="M352 635q56 0 93.5 -34t37.5 -85q0 -52 -36 -85.5t-92 -33.5h-168v238h165zM333 330q90 0 131.5 -32t41.5 -101q0 -26 -9.5 -50.5t-26.5 -40.5q-20 -19 -52 -27.5t-83 -8.5h-148v260h146zM20 635h80v-565h-81v-70h375q43 0 81 15t66.5 42t44.5 63t16 75q0 83 -62 134
q-17 14 -36.5 23t-57.5 19q26 8 46 16.5t39.5 25.5t32 45t12.5 69q0 33 -13.5 65t-37.5 56q-31 30 -76.5 43.5t-118.5 13.5h-310v-70z" />
    <glyph glyph-name="C" unicode="C" horiz-adv-x="677" 
d="M549 229q-7 -23 -12.5 -36.5t-12.5 -26.5q-26 -48 -73 -76t-100 -28q-97 0 -154.5 79.5t-57.5 214.5q0 129 56 206t149 77t157 -73q14 -17 25.5 -37t23.5 -55h80v231h-80v-114q-29 48 -85 86t-133 38q-62 0 -114.5 -26.5t-91 -76t-59 -117.5t-20.5 -148q0 -81 22 -147.5
t63 -114.5t98 -73.5t126 -25.5q132 0 220 108q46 57 63 135h-90z" />
    <glyph glyph-name="D" unicode="D" horiz-adv-x="698" 
d="M194 635h113q131 0 192.5 -69.5t61.5 -218.5q0 -55 -9.5 -102t-37.5 -86.5t-83 -64t-141 -24.5h-96v565zM106 70h-83v-70h314q70 0 128.5 25t101.5 70.5t66 108.5t23 138q0 172 -87 267.5t-249 95.5h-297v-70h83v-565z" />
    <glyph glyph-name="E" unicode="E" 
d="M21 635h84v-565h-85v-70h529v215h-80v-145h-277v260h262v70h-262v235h265v-134h80v204h-516v-70z" />
    <glyph glyph-name="F" unicode="F" horiz-adv-x="573" 
d="M22 635h82v-565h-83v-70h283v70h-112v260h259v70h-259v235h263v-136h79v206h-512v-70z" />
    <glyph glyph-name="G" unicode="G" horiz-adv-x="708" 
d="M388 281h164q-1 -23 -2 -35.5t-3 -21.5q-7 -35 -25.5 -65.5t-45 -53.5t-58 -35.5t-64.5 -12.5q-45 0 -84 22t-68 62t-45 94.5t-16 116.5q0 78 20 134.5t51.5 91t68.5 50.5t72 16q42 0 81 -20t69 -57q14 -17 23.5 -37t16.5 -49h77v224h-74v-109q-44 70 -97 96t-113 26
t-113 -28t-93 -79t-62 -118.5t-22 -144.5q0 -76 22.5 -143t62.5 -117t93.5 -78t113.5 -28q92 0 162 61q15 12 25 25.5t27 40.5v-109h80v350h-244v-69z" />
    <glyph glyph-name="H" unicode="H" horiz-adv-x="698" 
d="M23 635h83v-565h-84v-70h257v70h-85v260h309v-260h-83v-70h257v70h-86v565h85v70h-256v-70h83v-235h-309v235h84v70h-255v-70z" />
    <glyph glyph-name="I" unicode="I" horiz-adv-x="302" 
d="M23 635h84v-565h-84v-70h256v70h-84v565h84v70h-256v-70z" />
    <glyph glyph-name="J" unicode="J" horiz-adv-x="375" 
d="M93 635h84v-454q0 -62 -2 -78.5t-12 -25.5q-7 -7 -21 -11.5t-51 -4.5q-4 0 -13 1h-17l-35 2v-73l16 -1l17 -1q19 -1 30 -1.5t23 -0.5q53 0 83.5 9t45.5 28.5t19.5 50t4.5 82.5v478h83v70h-255v-70z" />
    <glyph glyph-name="K" unicode="K" horiz-adv-x="667" 
d="M38 635h85v-565h-84v-70h254v70h-83v205l91 98l228 -373h124v70h-71l-224 365l184 200h77v70h-113l-296 -332v262h83v70h-255v-70z" />
    <glyph glyph-name="L" unicode="L" horiz-adv-x="573" 
d="M22 635h85v-565h-86v-70h512v231h-80v-161h-258v565h87v70h-260v-70z" />
    <glyph glyph-name="M" unicode="M" horiz-adv-x="844" 
d="M23 635h84v-565h-85v-70h167v636l200 -636h60l207 637v-637h167v70h-85v565h85v70h-217l-185 -572l-180 572h-218v-70z" />
    <glyph glyph-name="N" unicode="N" horiz-adv-x="781" 
d="M21 635h82v-565h-82v-70h251v70h-86v564l356 -634h135v635h82v70h-252v-70h88v-565l-356 635h-218v-70z" />
    <glyph glyph-name="O" unicode="O" horiz-adv-x="708" 
d="M141 355q0 95 27.5 154.5t65 87t68 35t48.5 7.5h12q25 0 58 -10t67.5 -40t58 -91t23.5 -156q0 -62 -15 -113.5t-43 -89t-66.5 -58t-84.5 -20.5q-103 0 -161 78t-58 216zM351 712q-66 0 -122.5 -26.5t-97 -74.5t-62.5 -111t-22 -135q0 -86 21.5 -155.5t62.5 -119t98.5 -76
t127.5 -26.5q66 0 122 26.5t97 74.5t63.5 114t22.5 142q0 80 -21.5 147.5t-62 116.5t-98.5 76t-129 27z" />
    <glyph glyph-name="P" unicode="P" horiz-adv-x="594" 
d="M288 635q83 0 128 -35.5t45 -100.5q0 -68 -43.5 -106.5t-120.5 -38.5h-103v281h94zM25 635h81v-565h-83v-70h281v70h-110v214h105q119 0 187 56.5t68 156.5q0 95 -64.5 151.5t-173.5 56.5h-291v-70z" />
    <glyph glyph-name="Q" unicode="Q" horiz-adv-x="708" 
d="M355 62q-100 0 -157.5 77.5t-57.5 211.5t58 211t159 77q96 0 153.5 -79t57.5 -212q0 -130 -58 -208t-155 -78zM651 -41q-16 -2 -19 -2q-35 -4 -53 -4q-15 0 -27.5 2t-27 7t-33 14t-49.5 26q25 8 39.5 14t27.5 14q69 43 111 129.5t42 184.5q0 81 -22.5 149t-64 117
t-99 75.5t-126.5 26.5q-65 0 -121 -26t-97 -73.5t-63.5 -112t-22.5 -140.5t19.5 -141t55.5 -113.5t84.5 -78t105.5 -36.5l32 -20q77 -45 130.5 -67.5t112.5 -22.5q24 0 70 6z" />
    <glyph glyph-name="R" unicode="R" horiz-adv-x="677" 
d="M244 635q128 0 159 -9q37 -10 58.5 -42t21.5 -75q0 -54 -39.5 -87.5t-103.5 -33.5h-145v247h49zM24 635h83v-565h-87v-70h258v70h-83v249h155q44 0 70 -15t38 -44.5t16 -67t6 -110.5l2 -82h170v70h-86l-4 83q-3 58 -10.5 93.5t-20.5 56t-33.5 31.5t-55.5 22q22 9 33 14
t20 11q37 22 56.5 58.5t19.5 80.5q0 17 -5.5 43.5t-26.5 59.5t-68.5 57.5t-124.5 24.5h-322v-70z" />
    <glyph glyph-name="S" unicode="S" 
d="M46 214v-214h75v109q13 -18 21 -28t17 -19q35 -37 82 -57t97 -20q47 0 87.5 16t71 46t47 69.5t16.5 85.5q0 72 -43 124q-32 40 -81.5 59.5t-139.5 27.5q-42 4 -63.5 8t-41.5 13q-25 10 -41 36t-16 54q0 52 40 85t103 33q78 0 135 -54q15 -14 25 -29.5t25 -46.5h71v193
h-72v-99q-43 55 -89.5 82.5t-108.5 27.5q-45 0 -83.5 -14.5t-67.5 -41t-44.5 -62.5t-15.5 -78q0 -36 11.5 -67.5t31.5 -51.5q27 -27 45.5 -39t42.5 -20q26 -8 46.5 -11.5t77.5 -8.5q69 -6 99 -19q32 -14 50.5 -43t18.5 -64q0 -59 -44.5 -98t-113.5 -39q-85 0 -147 68
q-17 19 -26.5 36.5t-21.5 50.5h-76z" />
    <glyph glyph-name="T" unicode="T" horiz-adv-x="583" 
d="M41 449h67v186h140v-565h-91v-70h273v70h-94v565h140v-186h67v256h-502v-256z" />
    <glyph glyph-name="U" unicode="U" horiz-adv-x="740" 
d="M25 635h82v-389q0 -124 69 -191.5t196 -67.5q129 0 195 69.5t66 203.5v375h83v70h-255v-70h86v-383q0 -92 -46 -140t-135 -48q-78 0 -125 50t-47 133v388h86v70h-255v-70z" />
    <glyph glyph-name="V" unicode="V" horiz-adv-x="719" 
d="M28 635h63l214 -635h106l214 635h66v70h-221v-70h72l-185 -552l-180 552h71v70h-220v-70z" />
    <glyph glyph-name="W" unicode="W" horiz-adv-x="1000" 
d="M309 86l-135 549h73v70h-221v-70h65l168 -635h104l139 607l137 -607h105l168 635h63v70h-221v-70h74l-133 -549l-140 619h-108z" />
    <glyph glyph-name="X" unicode="X" horiz-adv-x="635" 
d="M48 635h67l156 -265l-182 -300h-63v-70h120l172 293l169 -293h122v70h-67l-177 299l160 266h66v70h-119l-154 -254l-151 254h-119v-70z" />
    <glyph glyph-name="Y" unicode="Y" horiz-adv-x="615" 
d="M28 635h65l172 -345v-220h-85v-70h255v70h-82v220l167 345h67v70h-123l-154 -324l-158 324h-124v-70z" />
    <glyph glyph-name="Z" unicode="Z" horiz-adv-x="563" 
d="M65 512h71v123h284l-385 -563v-72h486v195h-72v-125h-319l386 569v66h-451v-193z" />
    <glyph glyph-name="bracketleft" unicode="[" horiz-adv-x="333" 
d="M99 -168h205v63h-129v776h129v62h-205v-901z" />
    <glyph glyph-name="backslash" unicode="\" horiz-adv-x="417" 
d="M320 -181h64l-287 928h-63z" />
    <glyph glyph-name="bracketright" unicode="]" horiz-adv-x="333" 
d="M29 671h129v-776h-129v-63h205v901h-205v-62z" />
    <glyph glyph-name="asciicircum" unicode="^" horiz-adv-x="660" 
d="M111 466l31 -27l188 226l187 -226l32 27l-219 262z" />
    <glyph glyph-name="underscore" unicode="_" horiz-adv-x="500" 
d="M-10 -125h520v50h-520v-50z" />
    <glyph glyph-name="grave" unicode="`" horiz-adv-x="333" 
d="M161 728h-118l113 -136h71z" />
    <glyph glyph-name="a" unicode="a" horiz-adv-x="552" 
d="M388 188q0 -19 -11.5 -43t-32.5 -46t-50 -36t-63 -14q-46 0 -78.5 30t-32.5 72q0 51 48 77t171 41l49 6v-87zM541 63h-76v296q0 49 -16 85t-44 58t-64.5 32.5t-79.5 10.5q-89 0 -144 -46q-24 -21 -37.5 -45.5t-22.5 -64.5h81q12 52 41.5 73.5t87.5 21.5q56 0 88.5 -26.5
t32.5 -72.5v-55l-12 -1q-32 -3 -38 -4q-159 -15 -230.5 -56t-71.5 -117q0 -70 49 -116t124 -46q58 0 102.5 27t77.5 78v-95h152v63z" />
    <glyph glyph-name="b" unicode="b" horiz-adv-x="625" 
d="M188 317q0 28 13.5 57t36 53t51 38.5t56.5 14.5q67 0 107.5 -58t40.5 -151q0 -97 -41 -154.5t-110 -57.5q-30 0 -58 13.5t-49.5 37t-34 54t-12.5 63.5v90zM38 673h73v-610h-76v-63h153v101v0q17 -24 31.5 -40.5t34.5 -32t47.5 -25.5t60.5 -10q43 0 82 21t69.5 59t47 87
t16.5 103q0 58 -16 109.5t-45 90t-68 60t-84 21.5q-33 0 -62 -12t-51.5 -31t-38 -39t-24.5 -37v311h-150v-63z" />
    <glyph glyph-name="c" unicode="c" horiz-adv-x="552" 
d="M436 181q-6 -18 -10 -29t-9 -21q-19 -35 -52 -55t-71 -20q-75 0 -119 56.5t-44 151.5q0 102 40 160t110 58q39 0 67 -13t46.5 -33t28.5 -39t21 -46v-1h60v189h-59v-101l-2 3q-17 24 -31 40t-34 31t-47 24.5t-61 9.5q-47 0 -88 -20t-71 -56.5t-47 -85.5t-17 -106
q0 -133 65.5 -211t175.5 -78q108 0 175 82q18 21 28 43t23 67h-78z" />
    <glyph glyph-name="d" unicode="d" horiz-adv-x="625" 
d="M442 219q0 -31 -13 -60t-35.5 -52t-51.5 -36.5t-59 -13.5q-66 0 -106 57.5t-40 151.5q0 45 10.5 84t29.5 68t45 45t55 16q34 0 64.5 -14.5t53 -39t35 -52t12.5 -52.5v-102zM362 673h80v-245q-13 20 -20 29t-14 16q-30 33 -67 52t-74 19q-45 0 -85 -21t-69.5 -59.5
t-46 -89.5t-16.5 -109q0 -55 16 -105t45 -87.5t67.5 -58.5t80.5 -21q35 0 63.5 10.5t50 26.5t36.5 33.5t32 40.5l1 1v-105h152v63h-75v673h-157v-63z" />
    <glyph glyph-name="e" unicode="e" horiz-adv-x="552" 
d="M133 313q3 25 11 52q18 53 56 84t87 31q53 0 89 -33q24 -23 36 -53.5t16 -80.5h-295zM418 148q-20 -49 -50 -71t-77 -22q-59 0 -101 40q-28 27 -42.5 64t-19.5 95h389q0 137 -66.5 214.5t-170.5 77.5q-49 0 -92 -21t-75.5 -59.5t-50 -89.5t-17.5 -109q0 -60 18 -111.5
t51.5 -89t79 -57.5t99.5 -20q103 0 169 77q15 17 25 36t18 46h-87z" />
    <glyph glyph-name="f" unicode="f" horiz-adv-x="313" 
d="M98 539h-97v-64h97v-412h-76v-63h233v63h-80v412h110v64h-110v82q0 32 13.5 45.5t54.5 13.5q3 0 9 -1h9l30 -1l12 -1v68l-11 1q-15 1 -25 1.5t-23 0.5q-53 0 -83.5 -9.5t-43.5 -28.5t-16 -44t-3 -73v-54z" />
    <glyph glyph-name="g" unicode="g" horiz-adv-x="594" 
d="M421 243q0 -23 -12 -48t-33.5 -46t-48 -33.5t-55.5 -12.5q-69 0 -108 51t-39 140q0 88 38 138.5t104 50.5q30 0 57.5 -13.5t49.5 -35.5t34.5 -47t12.5 -47v-97zM421 20q0 -59 -39 -92t-107 -33q-54 0 -86 20t-56 69h-87q6 -19 11 -31t11 -22q27 -47 81 -74.5t120 -27.5
q110 0 169.5 53.5t59.5 150.5v442h75v64h-152v-96q-15 22 -28 37.5t-33 31.5t-47.5 25.5t-62.5 9.5q-45 0 -83.5 -18t-66.5 -51.5t-43.5 -79t-15.5 -99.5q0 -56 15.5 -104t45 -83t69.5 -53.5t88 -18.5q47 0 87 21.5t75 70.5v-112z" />
    <glyph glyph-name="h" unicode="h" 
d="M21 673h79v-610h-81v-63h232v63h-74v193q0 68 6 94t23 51q25 34 60 55t67 21q99 0 99 -133v-344h155v63h-78v265q0 67 -11 109t-35 67q-19 20 -46 32t-55 12q-51 0 -100.5 -32.5t-84.5 -83.5v304h-156v-63z" />
    <glyph glyph-name="i" unicode="i" horiz-adv-x="271" 
d="M80 616h91v91h-91v-91zM19 475h80v-412h-81v-63h235v63h-77v476h-157v-64z" />
    <glyph glyph-name="j" unicode="j" horiz-adv-x="313" 
d="M126 617h89v89h-89v-89zM64 539v-64h76v-475q0 -46 -2 -66t-10.5 -32t-27.5 -16.5t-58 -4.5h-19v-63l10 -1q27 -1 40 -1q50 0 79.5 8.5t43 26.5t18 46.5t4.5 79.5l-1 28v534h-153z" />
    <glyph glyph-name="k" unicode="k" horiz-adv-x="583" 
d="M24 673h78v-610h-78v-63h233v63h-78v155l93 88l174 -306h109v63h-59l-172 292l128 120h61v64h-96l-238 -238v435h-155v-63z" />
    <glyph glyph-name="l" unicode="l" horiz-adv-x="271" 
d="M24 673h76v-610h-77v-63h226v63h-72v673h-153v-63z" />
    <glyph glyph-name="m" unicode="m" horiz-adv-x="865" 
d="M178 539h-156v-64h78v-412h-78v-63h231v63h-76v268q0 19 10.5 45t30 50.5t46 40.5t55.5 16q77 0 77 -97v-386h154v63h-77v272q0 15 9.5 40t28 49.5t45.5 41.5t59 17q77 0 77 -109v-374h151v63h-74v339q0 70 -34 108t-96 38q-63 0 -115 -46q-15 -13 -25 -26t-26 -40
q-19 112 -125 112q-34 0 -62 -11t-48.5 -28.5t-33.5 -34.5t-26 -37v102z" />
    <glyph glyph-name="n" unicode="n" 
d="M173 63v250q0 31 13 61t35 54t50 38t56 14q47 0 74.5 -33t27.5 -91v-356h154v63h-77v294q0 90 -41.5 140.5t-114.5 50.5q-35 0 -64.5 -11.5t-50.5 -28.5t-34.5 -33t-26.5 -35l-1 -2v101h-153v-64h76v-412h-75v-63h229v63h-77z" />
    <glyph glyph-name="o" unicode="o" horiz-adv-x="583" 
d="M132 268q0 98 42 155t115 57q74 0 118.5 -56.5t44.5 -151.5q0 -101 -43 -159t-120 -58q-74 0 -115.5 56.5t-41.5 156.5zM290 -12q55 0 100.5 20.5t79 58t51.5 89.5t18 114q0 59 -18 110t-51.5 88.5t-79 58t-98.5 20.5q-54 0 -99.5 -20t-78.5 -57t-51 -88t-18 -112
q0 -62 17.5 -114t50.5 -90t78 -58t99 -20z" />
    <glyph glyph-name="p" unicode="p" 
d="M169 314q0 33 12 63t33.5 53t49.5 36.5t58 13.5q67 0 107.5 -60t40.5 -158q0 -91 -40.5 -147t-105.5 -56q-29 0 -57 14t-50.5 38t-35 54.5t-12.5 62.5v86zM169 539h-156v-64h79v-583h-81v-64h232v64h-74v206q39 -47 78 -75.5t95 -28.5q43 0 82 21t68.5 58.5t46 87
t16.5 104.5q0 59 -16 110.5t-45.5 89t-69 58.5t-85.5 21q-32 0 -58.5 -10t-46 -25t-33.5 -31.5t-29 -35.5l-3 -4v101z" />
    <glyph glyph-name="q" unicode="q" 
d="M430 216q0 -18 -10 -44.5t-30 -52.5t-49 -43.5t-66 -17.5q-67 0 -107.5 56t-40.5 149q0 99 40 157.5t108 58.5q29 0 57 -14t50.5 -38t35 -54.5t12.5 -62.5v-94zM430 -108h-77v-64h229v64h-75v583h77v64h-154v-107l-1 2q-12 17 -25.5 33t-35.5 34t-53 30.5t-67 12.5
q-42 0 -79.5 -21t-66.5 -59t-45 -88t-16 -105q0 -58 16 -108.5t45 -88.5t67 -59t82 -21q37 0 66 11t50 28t35 35t28 40v-216z" />
    <glyph glyph-name="r" unicode="r" horiz-adv-x="427" 
d="M186 539h-157v-64h80v-412h-77v-63h246v63h-92v248q0 9 6.5 33.5t23 53.5t50 50.5t83.5 21.5q19 0 57 -7v79q-40 6 -58 6q-55 0 -98 -37q-19 -18 -32 -37t-32 -59v124z" />
    <glyph glyph-name="s" unicode="s" horiz-adv-x="510" 
d="M383 453q-14 19 -27 33.5t-32 28.5t-45.5 23t-59.5 9q-76 0 -123.5 -44t-47.5 -114q0 -60 45.5 -97t131.5 -47l30 -4q77 -9 105.5 -27t28.5 -58q0 -43 -34 -71.5t-87 -28.5q-63 0 -112 47q-15 14 -24 28.5t-22 43.5h-61v-175h63v90l1 -1q18 -23 32 -38t34.5 -30t48 -24
t62.5 -9q36 0 68.5 13.5t57 37t38 55t13.5 65.5q0 76 -51.5 113t-167.5 51q-71 8 -98 24.5t-27 52.5q0 37 30.5 62.5t74.5 25.5q67 0 113 -43q13 -12 21.5 -25.5t21.5 -39.5h60v159h-61v-86z" />
    <glyph glyph-name="t" unicode="t" horiz-adv-x="313" 
d="M85 539h-92v-64h92v-378q0 -63 23.5 -86t87.5 -23q18 0 45 1t48 2v60l-28 -1q-34 0 -52.5 2.5t-28.5 10t-14 21.5t-4 39v352h130v64h-130v135h-77v-135z" />
    <glyph glyph-name="u" unicode="u" 
d="M21 475h71v-323q0 -74 39 -119.5t103 -45.5q38 0 68.5 11t53.5 29t38 36t32 42v-105h152v63h-73v476h-151v-64h74v-176q0 -82 -11.5 -122t-45.5 -75q-52 -50 -108 -50q-43 0 -68.5 31t-25.5 83v373h-148v-64z" />
    <glyph glyph-name="v" unicode="v" horiz-adv-x="583" 
d="M23 475h60l162 -475h91l165 475h60v64h-205v-64h66l-130 -395l-131 395h65v64h-203v-64z" />
    <glyph glyph-name="w" unicode="w" horiz-adv-x="833" 
d="M23 475h63l131 -475h93l109 444l108 -444h96l129 475h59v64h-203v-64h72l-105 -411l-116 475h-82l-113 -468l-104 404h66v64h-203v-64z" />
    <glyph glyph-name="x" unicode="x" horiz-adv-x="531" 
d="M36 475h63l125 -195l-137 -217h-61v-63h104l135 214l137 -214h104v63h-60l-138 218l123 194h60v64h-105l-121 -192l-122 192h-107v-64z" />
    <glyph glyph-name="y" unicode="y" horiz-adv-x="583" 
d="M23 475h60l181 -486v-1q-12 -37 -18.5 -53.5t-14 -25.5t-18 -11.5t-32.5 -2.5q-10 0 -21.5 1t-47.5 5l-4 -65l28 -3q12 -1 26 -2q13 -2 22 -2.5t21 -0.5q27 0 43.5 4t28 15.5t21.5 33t23 59.5l179 535h59v64h-201v-64h64l-124 -379l-138 379h67v64h-204v-64z" />
    <glyph glyph-name="z" unicode="z" horiz-adv-x="469" 
d="M57 376h65v99h213l-307 -413v-62h412v163h-63v-100h-249l305 415v61h-376v-163z" />
    <glyph glyph-name="braceleft" unicode="{" horiz-adv-x="333" 
d="M16 251q30 -1 51 -7t36.5 -23.5t23.5 -51t8 -87.5v-96q0 -43 6 -72.5t25 -52t55.5 -35t95.5 -12.5v55q-44 2 -64 6.5t-30.5 18t-14 40.5t-3.5 84v89q0 63 -27.5 108.5t-95.5 67.5q68 23 95.5 68t27.5 108v89q0 57 3.5 84t14 40.5t30.5 18t64 6.5v55q-59 0 -95.5 -12.5
t-55.5 -35t-25 -52t-6 -72.5v-96q0 -54 -8.5 -87.5t-23.5 -51t-36 -23.5t-51 -7v-64z" />
    <glyph glyph-name="bar" unicode="|" horiz-adv-x="527" 
d="M231 -250h65v1000h-65v-1000z" />
    <glyph glyph-name="braceright" unicode="}" horiz-adv-x="333" 
d="M317 315q-30 1 -50.5 7t-36 23.5t-24 51t-8.5 87.5v96q0 43 -6 72.5t-24.5 52t-55.5 35t-96 12.5v-55q44 -2 64 -6.5t30.5 -18t14 -40.5t3.5 -84v-89q0 -63 27.5 -108t95.5 -68q-68 -22 -95.5 -67.5t-27.5 -108.5v-89q0 -57 -3.5 -84t-14 -40.5t-30.5 -18t-64 -6.5v-55
q59 0 96 12.5t55.5 35t24.5 52t6 72.5v96q0 54 8.5 87.5t23.5 51t36 23.5t51 7v64z" />
    <glyph glyph-name="asciitilde" unicode="~" horiz-adv-x="667" 
d="M95 251q10 46 30.5 67t56.5 21q19 0 41 -6.5t65 -24.5l41 -17q61 -25 88.5 -33t50.5 -8q59 0 92 38t37 110h-25q-13 -89 -90 -89q-20 0 -44 8t-68 27q-49 21 -79 31.5t-49 16t-30 6.5t-22 1q-47 0 -81 -36q-19 -19 -27.5 -44t-11.5 -68h25z" />
    <glyph glyph-name="exclamdown" unicode="&#xa1;" horiz-adv-x="250" 
d="M80 475h91v91h-91v-91zM83 -172h83l-11 548h-58z" />
    <glyph glyph-name="cent" unicode="&#xa2;" horiz-adv-x="552" 
d="M436 181q-6 -18 -10 -29t-9 -21q-19 -35 -52 -55t-71 -20q-15 0 -21 2l76 409q38 -16 58.5 -46.5t36.5 -70.5h60v189h-59v-101q-1 1 -3 4q-21 29 -39 48.5t-43 33.5l40 215h-47l-37 -198q-23 5 -46 5q-47 0 -88 -20t-71 -56.5t-47 -85.5t-17 -106q0 -108 44.5 -181
t122.5 -96l-34 -180h48l32 170q10 -2 28 -2q108 0 175 82q18 21 28 43t23 67h-78zM227 71q-46 21 -71 71.5t-25 121.5q0 102 40 160t110 58q11 0 23 -2z" />
    <glyph glyph-name="sterling" unicode="&#xa3;" horiz-adv-x="573" 
d="M64 381v-65h89q2 -22 3 -33.5t1 -22.5q0 -68 -18.5 -113t-46.5 -83v-64h423v177h-75v-109h-259q27 49 41 96t14 100q0 11 -2 37q-1 11 -1 16h125v65h-137l-5 16q-16 50 -21.5 75.5t-5.5 49.5q0 55 33.5 89t88.5 34q23 0 45 -6t42.5 -23t33.5 -51t13 -87h84q-1 25 -2.5 41
t-4.5 29q-16 79 -74.5 125t-141.5 46q-89 0 -147 -55q-28 -27 -43 -63.5t-15 -78.5q0 -27 6 -50.5t19 -59.5l1 -4q4 -11 5.5 -16t2.5 -12h-71z" />
    <glyph glyph-name="currency" unicode="&#xa4;" horiz-adv-x="667" 
d="M158 456q-21 -23 -34 -57t-13 -75q0 -73 45 -135l-61 -60l44 -43l61 59q58 -44 132 -44q32 0 69 12t65 35l62 -62l43 43l-62 63q24 34 33.5 65.5t9.5 65.5q0 31 -9 63.5t-34 69.5l62 62l-43 44l-62 -63q-37 26 -68 35.5t-64 9.5t-68.5 -10.5t-64.5 -34.5l-63 63l-43 -44z
M175 323q0 32 12.5 61t34.5 51.5t51.5 34.5t61.5 12t60.5 -12t50.5 -34t34 -51.5t12 -61.5t-12 -61t-34 -51t-51.5 -34.5t-61.5 -12.5t-61 12.5t-50.5 34t-34 51t-12.5 61.5z" />
    <glyph glyph-name="yen" unicode="&#xa5;" horiz-adv-x="615" 
d="M263 256h-150v-69h150v-116h-84v-71h257v71h-84v116h150v69h-150v114h150v68h-104l96 199h66v68h-123l-129 -267l-129 267h-124v-68h66l99 -199h-107v-68h150v-114z" />
    <glyph glyph-name="brokenbar" unicode="&#xa6;" horiz-adv-x="527" 
d="M231 -175h65v350h-65v-350zM231 325h65v350h-65v-350z" />
    <glyph glyph-name="section" unicode="&#xa7;" horiz-adv-x="500" 
d="M257 407q71 -28 104 -52t33 -59q0 -41 -23 -68t-80 -54l-40 16q-73 30 -103.5 53.5t-30.5 62.5q0 35 24 63t76 54zM62 -18q3 -17 5.5 -26.5t6.5 -17.5q20 -55 69.5 -87t114.5 -32q39 0 74 13t61.5 37t41 55t14.5 66t-12 63.5t-30.5 48t-35.5 31t-35 21.5h-1
q24 14 43.5 27t37.5 32.5t29.5 46t11.5 59.5t-14 58t-37.5 43t-51.5 30.5t-66 26.5q-69 25 -105.5 51t-36.5 70q0 35 31.5 59.5t76.5 24.5q41 0 66.5 -21.5t41.5 -71.5h74q-6 29 -11 45t-12 29q-21 38 -65 60t-97 22q-36 0 -69 -12t-57.5 -33.5t-38 -50.5t-13.5 -62
q0 -30 10 -53.5t25.5 -40t30.5 -26.5t37 -23q-20 -10 -32 -17.5t-22 -15.5q-34 -25 -53 -58.5t-19 -67.5q0 -35 14.5 -61.5t39 -45.5t54 -33t70.5 -29q71 -26 108.5 -53t37.5 -71q0 -49 -33 -80t-84 -31q-44 0 -73 24t-47 77h-75z" />
    <glyph glyph-name="dieresis" unicode="&#xa8;" horiz-adv-x="333" 
d="M121 629v100h-92v-100h92zM303 629v100h-91v-100h91z" />
    <glyph glyph-name="copyright" unicode="&#xa9;" horiz-adv-x="800" 
d="M522 286q-24 -56 -50.5 -78t-70.5 -22q-59 0 -96 47.5t-37 123.5q0 74 37.5 117.5t100.5 43.5q38 0 64 -19t45 -62l47 14q-28 55 -64.5 81.5t-92.5 26.5q-84 0 -137 -57.5t-53 -148.5q0 -44 14 -82.5t40 -67.5t60 -45t73 -16q29 0 57 10t51 28q20 16 31.5 34.5t24.5 55.5
zM773 355q0 76 -29 144t-80.5 119.5t-119.5 80.5t-144 29t-144 -29t-119.5 -80.5t-80.5 -119.5t-29 -144t29 -144t80.5 -119.5t119.5 -80.5t144 -29t144 29t119.5 80.5t80.5 119.5t29 144zM728 355q0 -67 -25.5 -126.5t-71 -105t-105 -70.5t-126.5 -25t-126.5 25t-105 70.5
t-70.5 105t-25 126.5t25 127t70.5 105t105 70.5t126.5 25.5t127 -25.5t105 -70.5t70.5 -105t25.5 -127z" />
    <glyph glyph-name="ordfeminine" unicode="&#xaa;" horiz-adv-x="354" 
d="M251 488q0 -36 -31 -65t-69 -29q-31 0 -51.5 19t-20.5 47q0 32 29.5 48.5t103.5 26.5l39 4v-51zM90 613q8 33 27 46.5t58 13.5q35 0 55.5 -18.5t20.5 -50.5v-29h-4q-57 -7 -91.5 -12.5t-64.5 -17t-47.5 -32.5t-17.5 -53q0 -45 31 -74t79 -29q37 0 62 14.5t54 51.5v-61h97
v40h-49v196q0 52 -35.5 83t-92.5 31q-111 0 -133 -99h51z" />
    <glyph glyph-name="guillemotleft" unicode="&#xab;" horiz-adv-x="542" 
d="M264 536h-71l-165 -266l163 -270h70l-164 270zM514 536h-71l-165 -266l163 -270h70l-164 270z" />
    <glyph glyph-name="logicalnot" unicode="&#xac;" horiz-adv-x="667" 
d="M68 408h467v-238h64v302h-531v-64z" />
    <glyph glyph-name="minus" unicode="&#xad;" horiz-adv-x="667" 
d="M68 292h531v64h-531v-64z" />
    <glyph glyph-name="minus" unicode="&#x2212;" horiz-adv-x="667" 
d="M68 292h531v64h-531v-64z" />
    <glyph glyph-name="registered" unicode="&#xae;" horiz-adv-x="800" 
d="M773 355q0 76 -29 144t-80.5 119.5t-119.5 80.5t-144 29t-144 -29t-119.5 -80.5t-80.5 -119.5t-29 -144t29 -144t80.5 -119.5t119.5 -80.5t144 -29t144 29t119.5 80.5t80.5 119.5t29 144zM728 355q0 -67 -25.5 -126.5t-71 -105t-105 -70.5t-126.5 -25t-126.5 25
t-105 70.5t-70.5 105t-25 126.5t25 127t70.5 105t105 70.5t126.5 25.5t127 -25.5t105 -70.5t70.5 -105t25.5 -127zM249 155h49v170h23q38 0 61.5 -7t40.5 -24t32 -45.5t46 -92.5v-1h59l-13 29q-21 47 -35 73t-27 40q-10 12 -21 18.5t-35 16.5q62 11 89 37t27 73
q0 49 -35.5 77t-97.5 28h-163v-392zM298 507h73q66 0 91.5 -14.5t25.5 -53.5q0 -40 -28.5 -56.5t-96.5 -16.5h-65v141z" />
    <glyph glyph-name="macron" unicode="&#xaf;" horiz-adv-x="333" 
d="M319 608v72h-305v-72h305z" />
    <glyph glyph-name="degree" unicode="&#xb0;" horiz-adv-x="400" 
d="M341 587q0 59 -41 100t-100 41q-58 0 -99 -41t-41 -100q0 -58 41 -98t100 -40q58 0 99 40.5t41 97.5zM300 588q0 -41 -29.5 -70t-70.5 -29t-70.5 29t-29.5 70t29.5 70.5t70.5 29.5t70.5 -29.5t29.5 -70.5z" />
    <glyph glyph-name="plusminus" unicode="&#xb1;" horiz-adv-x="667" 
d="M68 373h233v-233h64v233h234v64h-234v234h-64v-234h-233v-64zM68 -22h531v64h-531v-64z" />
    <glyph glyph-name="twosuperior" unicode="&#xb2;" horiz-adv-x="354" 
d="M136 451l11 8l10 9l14 11q76 62 102.5 93.5t26.5 65.5q0 48 -35 77t-93 29q-64 0 -97.5 -25t-42.5 -80h55q11 32 30.5 45t54.5 13q32 0 52 -17t20 -45q0 -23 -28.5 -54.5t-106.5 -94.5l-74 -63v-55h275v94h-48v-48h-169z" />
    <glyph glyph-name="threesuperior" unicode="&#xb3;" horiz-adv-x="354" 
d="M40 635h49v55h161l-125 -106l28 -35q12 3 18 4t14 1q35 0 56.5 -19.5t21.5 -52.5t-24 -53t-64 -20q-38 0 -59 16t-30 52h-55q12 -64 45 -91.5t96 -27.5q66 0 106 34t40 91q0 15 -3.5 31.5t-15.5 33.5t-36.5 28.5t-63.5 11.5l115 97v51h-274v-101z" />
    <glyph glyph-name="acute" unicode="&#xb4;" horiz-adv-x="333" 
d="M181 592l108 136h-115l-65 -136h72z" />
    <glyph glyph-name="mu" unicode="&#xb5;" horiz-adv-x="556" 
d="M75 -204h72v265q31 -41 62 -57t69 -16q35 0 66.5 17t62.5 56v-61h72v518h-73v-271q0 -63 -12 -104t-31.5 -61.5t-41.5 -27.5t-48 -7q-57 0 -93 49q-20 28 -26.5 58.5t-6.5 100.5v263h-72v-722z" />
    <glyph glyph-name="paragraph" unicode="&#xb6;" horiz-adv-x="650" 
d="M278 716q-106 0 -170 -55.5t-64 -148.5q0 -42 13 -79t40 -66t69 -45.5t98 -16.5v-505h64v848h130v-848h62v848h96v68h-338z" />
    <glyph glyph-name="periodcentered" unicode="&#xb7;" horiz-adv-x="323" 
d="M117 299h89v97h-89v-97z" />
    <glyph glyph-name="periodcentered" unicode="&#x2219;" horiz-adv-x="323" 
d="M117 299h89v97h-89v-97z" />
    <glyph glyph-name="cedilla" unicode="&#xb8;" horiz-adv-x="333" 
d="M52 -200q35 -5 68 -5q65 0 104 25t39 66q0 61 -83 73l16 52h-65l-26 -86q14 0 25.5 -0.5t23.5 -3.5t20 -10t8 -19q0 -37 -79 -37q-11 0 -30 1l-16 1z" />
    <glyph glyph-name="onesuperior" unicode="&#xb9;" horiz-adv-x="354" 
d="M88 680v-60l76 62v-268h-60v-46h176v46h-61v324h-60z" />
    <glyph glyph-name="ordmasculine" unicode="&#xba;" horiz-adv-x="375" 
d="M188 670q47 0 75 -36.5t28 -99.5q0 -62 -28 -99.5t-75 -37.5q-49 0 -75.5 36t-26.5 101t26.5 100.5t75.5 35.5zM188 712q-70 0 -114 -49t-44 -129t43.5 -129.5t114.5 -49.5q70 0 114.5 50t44.5 129q0 77 -45 127.5t-114 50.5z" />
    <glyph glyph-name="guillemotright" unicode="&#xbb;" horiz-adv-x="542" 
d="M195 270l-164 -270h70l163 270l-165 266h-71zM445 270l-164 -270h70l163 270l-165 266h-71z" />
    <glyph glyph-name="onequarter" unicode="&#xbc;" horiz-adv-x="792" 
d="M62 680v-60l76 62v-268h-60v-46h177v46h-62v324h-60zM427 127v-48h181v-68h-43v-43h140v43h-44v68h84v44h-84v120l-53 -60v-60h-118l185 212h-66zM154 -34h53l396 776h-54z" />
    <glyph glyph-name="onehalf" unicode="&#xbd;" horiz-adv-x="792" 
d="M83 680v-60l75 62v-268h-60v-46h177v46h-61v324h-60zM690 14h-169l71 59q40 32 66.5 55.5t41.5 41.5t21.5 34t6.5 34q0 48 -34.5 77t-91.5 29q-65 0 -98.5 -25t-43.5 -80h55q12 32 31.5 45t53.5 13q32 0 52.5 -17t20.5 -44q0 -13 -6 -25t-22 -29.5t-46 -44t-84 -71.5
l-52 -43v-55h276v93h-49v-47zM162 -34h53l397 776h-55z" />
    <glyph glyph-name="threequarters" unicode="&#xbe;" horiz-adv-x="792" 
d="M44 635h48v55h162l-125 -106l28 -35q12 3 18 4t14 1q36 0 57 -19t21 -52q0 -34 -24 -54t-65 -20q-38 0 -58.5 15.5t-30.5 52.5h-54q4 -23 8.5 -37t10.5 -24q16 -28 48 -43t75 -15q65 0 105 34.5t40 90.5q0 17 -4.5 34t-17 33.5t-36.5 27t-62 10.5l116 97v51h-274v-101z
M456 127v-48h181v-68h-43v-43h140v43h-44v68h84v44h-84v120l-53 -60v-60h-118l186 212h-67zM171 -34h53l397 776h-55z" />
    <glyph glyph-name="questiondown" unicode="&#xbf;" horiz-adv-x="583" 
d="M269 480h90v91h-90v-91zM278 227q-20 -4 -32 -7.5t-23 -7.5q-56 -22 -89 -71t-33 -109q0 -43 15.5 -80.5t44.5 -65.5t68 -43t84 -15q90 0 149 56q30 29 44.5 66t19.5 100h-80q-2 -18 -3.5 -29.5t-4.5 -21.5q-13 -48 -47.5 -76.5t-81.5 -28.5q-55 0 -93 40t-38 98
q0 64 41 106q23 25 52 36t81 15v192h-74v-154z" />
    <glyph glyph-name="Agrave" unicode="&#xc0;" horiz-adv-x="719" 
d="M354 894h-118l113 -136h71zM473 269h-232l114 362zM92 70h-64v-70h128l62 200h278l64 -200h131v70h-67l-218 635h-102z" />
    <glyph glyph-name="Aacute" unicode="&#xc1;" horiz-adv-x="719" 
d="M374 758l108 136h-115l-65 -136h72zM473 269h-232l114 362zM92 70h-64v-70h128l62 200h278l64 -200h131v70h-67l-218 635h-102z" />
    <glyph glyph-name="Acircumflex" unicode="&#xc2;" horiz-adv-x="719" 
d="M414 758h100l-110 136h-93l-106 -136h100l56 83zM473 269h-232l114 362zM92 70h-64v-70h128l62 200h278l64 -200h131v70h-67l-218 635h-102z" />
    <glyph glyph-name="Atilde" unicode="&#xc3;" horiz-adv-x="719" 
d="M261 770q0 16 4.5 25.5t11 14t11.5 5.5t9 1q17 0 40 -12l18 -10q42 -23 74 -23q86 0 94 112h-64q-3 -24 -10.5 -33.5t-24.5 -9.5q-15 0 -39 11l-15 8q-44 22 -74 22q-15 0 -32 -4.5t-32.5 -17t-25.5 -34.5t-10 -55h65zM473 269h-232l114 362zM92 70h-64v-70h128l62 200
h278l64 -200h131v70h-67l-218 635h-102z" />
    <glyph glyph-name="Adieresis" unicode="&#xc4;" horiz-adv-x="719" 
d="M314 795v100h-92v-100h92zM496 795v100h-91v-100h91zM473 269h-232l114 362zM92 70h-64v-70h128l62 200h278l64 -200h131v70h-67l-218 635h-102z" />
    <glyph glyph-name="Aring" unicode="&#xc5;" horiz-adv-x="719" 
d="M272 828q0 -38 25.5 -64.5t62.5 -26.5t62.5 26t25.5 63t-25.5 63t-60.5 26q-37 0 -63.5 -25.5t-26.5 -61.5zM309 828q0 21 15.5 36.5t36.5 15.5q22 0 37 -15.5t15 -37.5t-15.5 -38t-36.5 -16q-22 0 -37 16t-15 39zM473 269h-232l114 362zM92 70h-64v-70h128l62 200h278
l64 -200h131v70h-67l-218 635h-102z" />
    <glyph glyph-name="AE" unicode="&#xc6;" horiz-adv-x="1000" 
d="M514 635v-254h-168l128 254h40zM106 70h-72v-70h122l159 317h199v-317h442v210h-75v-140h-279v247h262v69h-262v249h263v-133h75v203h-516z" />
    <glyph glyph-name="Ccedilla" unicode="&#xc7;" horiz-adv-x="677" 
d="M265 -75q14 0 25.5 -0.5t23.5 -3.5t20 -10t8 -19q0 -37 -79 -37q-11 0 -30 1l-16 1l-5 -57q35 -5 68 -5q65 0 104 25t39 66q0 61 -83 73l8 27q140 0 228 108q46 57 63 135h-90q-7 -24 -12.5 -38t-12.5 -25q-26 -48 -73 -76t-100 -28q-97 0 -154.5 79.5t-57.5 214.5
q0 129 56 206t149 77t157 -73q14 -17 25.5 -37t23.5 -55h80v231h-80v-114q-29 48 -85 86t-133 38q-62 0 -114.5 -26.5t-91 -76t-59 -117.5t-20.5 -148q0 -142 64.5 -236t174.5 -117z" />
    <glyph glyph-name="Egrave" unicode="&#xc8;" 
d="M297 894h-118l113 -136h71zM21 635h84v-565h-85v-70h529v215h-80v-145h-277v260h262v70h-262v235h265v-134h80v204h-516v-70z" />
    <glyph glyph-name="Eacute" unicode="&#xc9;" 
d="M317 758l108 136h-115l-65 -136h72zM21 635h84v-565h-85v-70h529v215h-80v-145h-277v260h262v70h-262v235h265v-134h80v204h-516v-70z" />
    <glyph glyph-name="Ecircumflex" unicode="&#xca;" 
d="M357 758h100l-110 136h-93l-106 -136h100l56 83zM21 635h84v-565h-85v-70h529v215h-80v-145h-277v260h262v70h-262v235h265v-134h80v204h-516v-70z" />
    <glyph glyph-name="Edieresis" unicode="&#xcb;" 
d="M257 795v100h-92v-100h92zM439 795v100h-91v-100h91zM21 635h84v-565h-85v-70h529v215h-80v-145h-277v260h262v70h-262v235h265v-134h80v204h-516v-70z" />
    <glyph glyph-name="Igrave" unicode="&#xcc;" horiz-adv-x="302" 
d="M146 894h-118l113 -136h71zM23 635h84v-565h-84v-70h256v70h-84v565h84v70h-256v-70z" />
    <glyph glyph-name="Iacute" unicode="&#xcd;" horiz-adv-x="302" 
d="M166 758l108 136h-115l-65 -136h72zM23 635h84v-565h-84v-70h256v70h-84v565h84v70h-256v-70z" />
    <glyph glyph-name="Icircumflex" unicode="&#xce;" horiz-adv-x="302" 
d="M206 758h100l-110 136h-93l-106 -136h100l56 83zM23 635h84v-565h-84v-70h256v70h-84v565h84v70h-256v-70z" />
    <glyph glyph-name="Idieresis" unicode="&#xcf;" horiz-adv-x="302" 
d="M106 795v100h-92v-100h92zM288 795v100h-91v-100h91zM23 635h84v-565h-84v-70h256v70h-84v565h84v70h-256v-70z" />
    <glyph glyph-name="Eth" unicode="&#xd0;" horiz-adv-x="698" 
d="M194 319h199v67h-199v249h102q76 0 127.5 -20t81.5 -57.5t43 -90t13 -121.5q0 -55 -9.5 -102t-37.5 -86.5t-83 -64t-141 -24.5h-96v250zM106 386h-70v-67h70v-250h-83v-69h307q72 0 132.5 24.5t104 70t67 108t23.5 137.5q0 172 -87 268.5t-240 96.5h-308v-70h84v-249z
" />
    <glyph glyph-name="Ntilde" unicode="&#xd1;" horiz-adv-x="781" 
d="M292 770q0 16 4.5 25.5t11 14t11.5 5.5t9 1q17 0 40 -12l18 -10q42 -23 74 -23q86 0 94 112h-64q-3 -24 -10.5 -33.5t-24.5 -9.5q-15 0 -39 11l-15 8q-44 22 -74 22q-15 0 -32 -4.5t-32.5 -17t-25.5 -34.5t-10 -55h65zM21 635h82v-565h-82v-70h251v70h-86v564l356 -634
h135v635h82v70h-252v-70h88v-565l-356 635h-218v-70z" />
    <glyph glyph-name="Ograve" unicode="&#xd2;" horiz-adv-x="708" 
d="M349 894h-118l113 -136h71zM141 355q0 95 27.5 154.5t65 87t68 35t48.5 7.5h12q25 0 58 -10t67.5 -40t58 -91t23.5 -156q0 -62 -15 -113.5t-43 -89t-66.5 -58t-84.5 -20.5q-103 0 -161 78t-58 216zM351 712q-66 0 -122.5 -26.5t-97 -74.5t-62.5 -111t-22 -135
q0 -86 21.5 -155.5t62.5 -119t98.5 -76t127.5 -26.5q66 0 122 26.5t97 74.5t63.5 114t22.5 142q0 80 -21.5 147.5t-62 116.5t-98.5 76t-129 27z" />
    <glyph glyph-name="Oacute" unicode="&#xd3;" horiz-adv-x="708" 
d="M369 758l108 136h-115l-65 -136h72zM141 355q0 95 27.5 154.5t65 87t68 35t48.5 7.5h12q25 0 58 -10t67.5 -40t58 -91t23.5 -156q0 -62 -15 -113.5t-43 -89t-66.5 -58t-84.5 -20.5q-103 0 -161 78t-58 216zM351 712q-66 0 -122.5 -26.5t-97 -74.5t-62.5 -111t-22 -135
q0 -86 21.5 -155.5t62.5 -119t98.5 -76t127.5 -26.5q66 0 122 26.5t97 74.5t63.5 114t22.5 142q0 80 -21.5 147.5t-62 116.5t-98.5 76t-129 27z" />
    <glyph glyph-name="Ocircumflex" unicode="&#xd4;" horiz-adv-x="708" 
d="M409 758h100l-110 136h-93l-106 -136h100l56 83zM141 355q0 95 27.5 154.5t65 87t68 35t48.5 7.5h12q25 0 58 -10t67.5 -40t58 -91t23.5 -156q0 -62 -15 -113.5t-43 -89t-66.5 -58t-84.5 -20.5q-103 0 -161 78t-58 216zM351 712q-66 0 -122.5 -26.5t-97 -74.5t-62.5 -111
t-22 -135q0 -86 21.5 -155.5t62.5 -119t98.5 -76t127.5 -26.5q66 0 122 26.5t97 74.5t63.5 114t22.5 142q0 80 -21.5 147.5t-62 116.5t-98.5 76t-129 27z" />
    <glyph glyph-name="Otilde" unicode="&#xd5;" horiz-adv-x="708" 
d="M256 770q0 16 4.5 25.5t11 14t11.5 5.5t9 1q17 0 40 -12l18 -10q42 -23 74 -23q86 0 94 112h-64q-3 -24 -10.5 -33.5t-24.5 -9.5q-15 0 -39 11l-15 8q-44 22 -74 22q-15 0 -32 -4.5t-32.5 -17t-25.5 -34.5t-10 -55h65zM141 355q0 95 27.5 154.5t65 87t68 35t48.5 7.5h12
q25 0 58 -10t67.5 -40t58 -91t23.5 -156q0 -62 -15 -113.5t-43 -89t-66.5 -58t-84.5 -20.5q-103 0 -161 78t-58 216zM351 712q-66 0 -122.5 -26.5t-97 -74.5t-62.5 -111t-22 -135q0 -86 21.5 -155.5t62.5 -119t98.5 -76t127.5 -26.5q66 0 122 26.5t97 74.5t63.5 114
t22.5 142q0 80 -21.5 147.5t-62 116.5t-98.5 76t-129 27z" />
    <glyph glyph-name="Odieresis" unicode="&#xd6;" horiz-adv-x="708" 
d="M309 795v100h-92v-100h92zM491 795v100h-91v-100h91zM141 355q0 95 27.5 154.5t65 87t68 35t48.5 7.5h12q25 0 58 -10t67.5 -40t58 -91t23.5 -156q0 -62 -15 -113.5t-43 -89t-66.5 -58t-84.5 -20.5q-103 0 -161 78t-58 216zM351 712q-66 0 -122.5 -26.5t-97 -74.5
t-62.5 -111t-22 -135q0 -86 21.5 -155.5t62.5 -119t98.5 -76t127.5 -26.5q66 0 122 26.5t97 74.5t63.5 114t22.5 142q0 80 -21.5 147.5t-62 116.5t-98.5 76t-129 27z" />
    <glyph glyph-name="multiply" unicode="&#xd7;" horiz-adv-x="668" 
d="M289 323l-198 -198l45 -45l198 198l198 -198l45 45l-197 198l199 199l-45 46l-200 -200l-199 200l-45 -45z" />
    <glyph glyph-name="Oslash" unicode="&#xd8;" horiz-adv-x="708" 
d="M676 677l-41 35l-74 -85q-40 41 -93 63t-117 22q-66 0 -122.5 -26.5t-97 -74.5t-62.5 -111t-22 -135q0 -151 67 -251l-81 -92l42 -35l74 85q39 -41 92 -62.5t116 -21.5q66 0 122 26.5t97 74.5t63.5 114t22.5 142q0 70 -17 131t-49 108zM174 183q-33 69 -33 172
q0 95 27.5 154.5t65 87t68 35t48.5 7.5h12q13 0 29.5 -2.5t37 -10.5t41 -22.5t38.5 -37.5zM537 517q32 -69 32 -175q0 -62 -15 -113.5t-43 -89t-66.5 -58t-84.5 -20.5q-99 0 -157 73z" />
    <glyph glyph-name="Ugrave" unicode="&#xd9;" horiz-adv-x="740" 
d="M365 894h-118l113 -136h71zM25 635h82v-389q0 -124 69 -191.5t196 -67.5q129 0 195 69.5t66 203.5v375h83v70h-255v-70h86v-383q0 -92 -46 -140t-135 -48q-78 0 -125 50t-47 133v388h86v70h-255v-70z" />
    <glyph glyph-name="Uacute" unicode="&#xda;" horiz-adv-x="740" 
d="M385 758l108 136h-115l-65 -136h72zM25 635h82v-389q0 -124 69 -191.5t196 -67.5q129 0 195 69.5t66 203.5v375h83v70h-255v-70h86v-383q0 -92 -46 -140t-135 -48q-78 0 -125 50t-47 133v388h86v70h-255v-70z" />
    <glyph glyph-name="Ucircumflex" unicode="&#xdb;" horiz-adv-x="740" 
d="M425 758h100l-110 136h-93l-106 -136h100l56 83zM25 635h82v-389q0 -124 69 -191.5t196 -67.5q129 0 195 69.5t66 203.5v375h83v70h-255v-70h86v-383q0 -92 -46 -140t-135 -48q-78 0 -125 50t-47 133v388h86v70h-255v-70z" />
    <glyph glyph-name="Udieresis" unicode="&#xdc;" horiz-adv-x="740" 
d="M325 795v100h-92v-100h92zM507 795v100h-91v-100h91zM25 635h82v-389q0 -124 69 -191.5t196 -67.5q129 0 195 69.5t66 203.5v375h83v70h-255v-70h86v-383q0 -92 -46 -140t-135 -48q-78 0 -125 50t-47 133v388h86v70h-255v-70z" />
    <glyph glyph-name="Yacute" unicode="&#xdd;" horiz-adv-x="615" 
d="M322 758l108 136h-115l-65 -136h72zM28 635h65l172 -345v-220h-85v-70h255v70h-82v220l167 345h67v70h-123l-154 -324l-158 324h-124v-70z" />
    <glyph glyph-name="Thorn" unicode="&#xde;" horiz-adv-x="594" 
d="M286 494q86 0 131.5 -36t45.5 -104q0 -65 -44 -103.5t-120 -38.5h-103v282h90zM25 705v-70h83v-567h-85v-68h280v68h-107v74h102q119 0 187.5 57t68.5 156q0 95 -64 151.5t-171 56.5h-123v72h89v70h-260z" />
    <glyph glyph-name="germandbls" unicode="&#xdf;" horiz-adv-x="594" 
d="M89 70h-75v-70h150v515q0 76 36 116.5t102 40.5q53 0 89.5 -31t36.5 -77q0 -49 -32 -81q-20 -20 -45 -29.5t-70 -11.5v-62q25 -1 38.5 -2.5t27.5 -4.5q59 -13 92.5 -53.5t33.5 -97.5q0 -72 -47 -119t-120 -47q-12 0 -47 5v-67q42 -7 66 -7q48 0 89 17.5t71.5 50t47 76
t16.5 94.5q0 91 -67 152q-35 32 -90 49h1q22 9 38.5 18t32.5 24.5t26.5 41t10.5 60.5q0 74 -55.5 120t-144.5 46q-102 0 -157 -58t-55 -165v-443z" />
    <glyph glyph-name="agrave" unicode="&#xe0;" horiz-adv-x="552" 
d="M271 728h-118l113 -136h71zM388 188q0 -19 -11.5 -43t-32.5 -46t-50 -36t-63 -14q-46 0 -78.5 30t-32.5 72q0 51 48 77t171 41l49 6v-87zM541 63h-76v296q0 49 -16 85t-44 58t-64.5 32.5t-79.5 10.5q-89 0 -144 -46q-24 -21 -37.5 -45.5t-22.5 -64.5h81q12 52 41.5 73.5
t87.5 21.5q56 0 88.5 -26.5t32.5 -72.5v-55l-12 -1q-32 -3 -38 -4q-159 -15 -230.5 -56t-71.5 -117q0 -70 49 -116t124 -46q58 0 102.5 27t77.5 78v-95h152v63z" />
    <glyph glyph-name="aacute" unicode="&#xe1;" horiz-adv-x="552" 
d="M291 592l108 136h-115l-65 -136h72zM388 188q0 -19 -11.5 -43t-32.5 -46t-50 -36t-63 -14q-46 0 -78.5 30t-32.5 72q0 51 48 77t171 41l49 6v-87zM541 63h-76v296q0 49 -16 85t-44 58t-64.5 32.5t-79.5 10.5q-89 0 -144 -46q-24 -21 -37.5 -45.5t-22.5 -64.5h81
q12 52 41.5 73.5t87.5 21.5q56 0 88.5 -26.5t32.5 -72.5v-55l-12 -1q-32 -3 -38 -4q-159 -15 -230.5 -56t-71.5 -117q0 -70 49 -116t124 -46q58 0 102.5 27t77.5 78v-95h152v63z" />
    <glyph glyph-name="acircumflex" unicode="&#xe2;" horiz-adv-x="552" 
d="M331 592h100l-110 136h-93l-106 -136h100l56 83zM388 188q0 -19 -11.5 -43t-32.5 -46t-50 -36t-63 -14q-46 0 -78.5 30t-32.5 72q0 51 48 77t171 41l49 6v-87zM541 63h-76v296q0 49 -16 85t-44 58t-64.5 32.5t-79.5 10.5q-89 0 -144 -46q-24 -21 -37.5 -45.5t-22.5 -64.5
h81q12 52 41.5 73.5t87.5 21.5q56 0 88.5 -26.5t32.5 -72.5v-55l-12 -1q-32 -3 -38 -4q-159 -15 -230.5 -56t-71.5 -117q0 -70 49 -116t124 -46q58 0 102.5 27t77.5 78v-95h152v63z" />
    <glyph glyph-name="atilde" unicode="&#xe3;" horiz-adv-x="552" 
d="M178 604q0 16 4.5 25.5t11 14t11.5 5.5t9 1q17 0 40 -12l18 -10q42 -23 74 -23q86 0 94 112h-64q-3 -24 -10.5 -33.5t-24.5 -9.5q-15 0 -39 11l-15 8q-44 22 -74 22q-15 0 -32 -4.5t-32.5 -17t-25.5 -34.5t-10 -55h65zM388 188q0 -19 -11.5 -43t-32.5 -46t-50 -36
t-63 -14q-46 0 -78.5 30t-32.5 72q0 51 48 77t171 41l49 6v-87zM541 63h-76v296q0 49 -16 85t-44 58t-64.5 32.5t-79.5 10.5q-89 0 -144 -46q-24 -21 -37.5 -45.5t-22.5 -64.5h81q12 52 41.5 73.5t87.5 21.5q56 0 88.5 -26.5t32.5 -72.5v-55l-12 -1q-32 -3 -38 -4
q-159 -15 -230.5 -56t-71.5 -117q0 -70 49 -116t124 -46q58 0 102.5 27t77.5 78v-95h152v63z" />
    <glyph glyph-name="adieresis" unicode="&#xe4;" horiz-adv-x="552" 
d="M231 629v100h-92v-100h92zM413 629v100h-91v-100h91zM388 188q0 -19 -11.5 -43t-32.5 -46t-50 -36t-63 -14q-46 0 -78.5 30t-32.5 72q0 51 48 77t171 41l49 6v-87zM541 63h-76v296q0 49 -16 85t-44 58t-64.5 32.5t-79.5 10.5q-89 0 -144 -46q-24 -21 -37.5 -45.5
t-22.5 -64.5h81q12 52 41.5 73.5t87.5 21.5q56 0 88.5 -26.5t32.5 -72.5v-55l-12 -1q-32 -3 -38 -4q-159 -15 -230.5 -56t-71.5 -117q0 -70 49 -116t124 -46q58 0 102.5 27t77.5 78v-95h152v63z" />
    <glyph glyph-name="aring" unicode="&#xe5;" horiz-adv-x="552" 
d="M189 662q0 -38 25.5 -64.5t62.5 -26.5t62.5 26t25.5 63t-25.5 63t-60.5 26q-37 0 -63.5 -25.5t-26.5 -61.5zM226 662q0 21 15.5 36.5t36.5 15.5q22 0 37 -15.5t15 -37.5t-15.5 -38t-36.5 -16q-22 0 -37 16t-15 39zM388 188q0 -19 -11.5 -43t-32.5 -46t-50 -36t-63 -14
q-46 0 -78.5 30t-32.5 72q0 51 48 77t171 41l49 6v-87zM541 63h-76v296q0 49 -16 85t-44 58t-64.5 32.5t-79.5 10.5q-89 0 -144 -46q-24 -21 -37.5 -45.5t-22.5 -64.5h81q12 52 41.5 73.5t87.5 21.5q56 0 88.5 -26.5t32.5 -72.5v-55l-12 -1q-32 -3 -38 -4
q-159 -15 -230.5 -56t-71.5 -117q0 -70 49 -116t124 -46q58 0 102.5 27t77.5 78v-95h152v63z" />
    <glyph glyph-name="ae" unicode="&#xe6;" horiz-adv-x="885" 
d="M469 314q1 24 10 52t27.5 54t50 43t75.5 17q53 0 86 -33q24 -23 35.5 -53.5t15.5 -79.5h-300zM389 276q0 -59 -2 -84.5t-11 -48.5q-18 -41 -58.5 -68t-85.5 -27q-49 0 -81.5 29t-32.5 73q0 56 59.5 82.5t179.5 39.5zM136 387q16 54 45.5 76t86.5 22q59 0 94 -34
q16 -17 21.5 -41t5.5 -80q-84 -9 -145 -19.5t-108.5 -30t-74.5 -52t-27 -80.5q0 -68 48 -114t121 -46q46 0 81.5 14t60.5 36t41 46.5t26 48.5q16 -31 31 -53t39.5 -43t62.5 -34t90 -13q41 0 76.5 14t62.5 37.5t44.5 51.5t26.5 55h-82q-28 -53 -57 -74t-75 -21q-17 0 -40.5 6
t-51 26t-49 62t-26.5 110h391v10q1 4 1 9q0 53 -17 102t-48 87t-73.5 59.5t-92.5 21.5q-64 0 -106.5 -31t-73.5 -84q-25 60 -75 86.5t-111 26.5q-84 0 -142 -46q-25 -20 -38 -44.5t-24 -66.5h81z" />
    <glyph glyph-name="ccedilla" unicode="&#xe7;" horiz-adv-x="552" 
d="M195 -75q14 0 25.5 -0.5t23.5 -3.5t20 -10t8 -19q0 -37 -79 -37q-11 0 -30 1l-16 1l-5 -57q35 -5 68 -5q65 0 104 25t39 66q0 61 -83 73l10 31q61 0 106 20.5t77 60.5q18 21 28 43t23 67h-78q-6 -18 -10 -29t-9 -21q-19 -35 -52 -55t-71 -20q-75 0 -119 56.5t-44 151.5
q0 102 40 160t110 58q39 0 67 -13t46.5 -33t28.5 -39t21 -46v-1h60v189h-59v-101l-2 3q-17 24 -31 40t-34 31t-47 24.5t-61 9.5q-47 0 -88 -20t-71 -56.5t-47 -85.5t-17 -106q0 -110 45.5 -183.5t125.5 -94.5z" />
    <glyph glyph-name="egrave" unicode="&#xe8;" horiz-adv-x="552" 
d="M271 728h-118l113 -136h71zM133 313q3 25 11 52q18 53 56 84t87 31q53 0 89 -33q24 -23 36 -53.5t16 -80.5h-295zM418 148q-20 -49 -50 -71t-77 -22q-59 0 -101 40q-28 27 -42.5 64t-19.5 95h389q0 137 -66.5 214.5t-170.5 77.5q-49 0 -92 -21t-75.5 -59.5t-50 -89.5
t-17.5 -109q0 -60 18 -111.5t51.5 -89t79 -57.5t99.5 -20q103 0 169 77q15 17 25 36t18 46h-87z" />
    <glyph glyph-name="eacute" unicode="&#xe9;" horiz-adv-x="552" 
d="M291 592l108 136h-115l-65 -136h72zM133 313q3 25 11 52q18 53 56 84t87 31q53 0 89 -33q24 -23 36 -53.5t16 -80.5h-295zM418 148q-20 -49 -50 -71t-77 -22q-59 0 -101 40q-28 27 -42.5 64t-19.5 95h389q0 137 -66.5 214.5t-170.5 77.5q-49 0 -92 -21t-75.5 -59.5
t-50 -89.5t-17.5 -109q0 -60 18 -111.5t51.5 -89t79 -57.5t99.5 -20q103 0 169 77q15 17 25 36t18 46h-87z" />
    <glyph glyph-name="ecircumflex" unicode="&#xea;" horiz-adv-x="552" 
d="M331 592h100l-110 136h-93l-106 -136h100l56 83zM133 313q3 25 11 52q18 53 56 84t87 31q53 0 89 -33q24 -23 36 -53.5t16 -80.5h-295zM418 148q-20 -49 -50 -71t-77 -22q-59 0 -101 40q-28 27 -42.5 64t-19.5 95h389q0 137 -66.5 214.5t-170.5 77.5q-49 0 -92 -21
t-75.5 -59.5t-50 -89.5t-17.5 -109q0 -60 18 -111.5t51.5 -89t79 -57.5t99.5 -20q103 0 169 77q15 17 25 36t18 46h-87z" />
    <glyph glyph-name="edieresis" unicode="&#xeb;" horiz-adv-x="552" 
d="M231 629v100h-92v-100h92zM413 629v100h-91v-100h91zM133 313q3 25 11 52q18 53 56 84t87 31q53 0 89 -33q24 -23 36 -53.5t16 -80.5h-295zM418 148q-20 -49 -50 -71t-77 -22q-59 0 -101 40q-28 27 -42.5 64t-19.5 95h389q0 137 -66.5 214.5t-170.5 77.5q-49 0 -92 -21
t-75.5 -59.5t-50 -89.5t-17.5 -109q0 -60 18 -111.5t51.5 -89t79 -57.5t99.5 -20q103 0 169 77q15 17 25 36t18 46h-87z" />
    <glyph glyph-name="igrave" unicode="&#xec;" horiz-adv-x="271" 
d="M110 728h-118l113 -136h71zM19 475h80v-412h-81v-63h235v63h-77v476h-157v-64z" />
    <glyph glyph-name="iacute" unicode="&#xed;" horiz-adv-x="271" 
d="M150 592l108 136h-115l-65 -136h72zM19 475h80v-412h-81v-63h235v63h-77v476h-157v-64z" />
    <glyph glyph-name="icircumflex" unicode="&#xee;" horiz-adv-x="271" 
d="M160 592h100l-110 136h-93l-106 -136h100l56 83zM19 475h80v-412h-81v-63h235v63h-77v476h-157v-64z" />
    <glyph glyph-name="idieresis" unicode="&#xef;" horiz-adv-x="271" 
d="M60 629v100h-92v-100h92zM242 629v100h-91v-100h91zM19 475h80v-412h-81v-63h235v63h-77v476h-157v-64z" />
    <glyph glyph-name="eth" unicode="&#xf0;" horiz-adv-x="583" 
d="M286 478q34 0 64 -16t52.5 -45.5t35 -68.5t12.5 -83q0 -98 -44 -156t-117 -58q-76 0 -119 56.5t-43 155.5t43 157t116 58zM412 735l-104 -51q-52 31 -100 50l-27 -49q21 -11 59 -34l-93 -45l19 -46l121 58q39 -30 67.5 -63t39.5 -67l-4 -1q-51 50 -123 50
q-48 0 -89 -20.5t-71 -58.5t-46 -89t-16 -110t18 -109t50.5 -86t77 -56t96.5 -20q54 0 99.5 20.5t78.5 58t51 89.5t18 114q0 117 -46 217t-132 164l77 38z" />
    <glyph glyph-name="ntilde" unicode="&#xf1;" 
d="M204 604q0 16 4.5 25.5t11 14t11.5 5.5t9 1q17 0 40 -12l18 -10q42 -23 74 -23q86 0 94 112h-64q-3 -24 -10.5 -33.5t-24.5 -9.5q-15 0 -39 11l-15 8q-44 22 -74 22q-15 0 -32 -4.5t-32.5 -17t-25.5 -34.5t-10 -55h65zM173 63v250q0 31 13 61t35 54t50 38t56 14
q47 0 74.5 -33t27.5 -91v-356h154v63h-77v294q0 90 -41.5 140.5t-114.5 50.5q-35 0 -64.5 -11.5t-50.5 -28.5t-34.5 -33t-26.5 -35l-1 -2v101h-153v-64h76v-412h-75v-63h229v63h-77z" />
    <glyph glyph-name="ograve" unicode="&#xf2;" horiz-adv-x="583" 
d="M286 728h-118l113 -136h71zM132 268q0 98 42 155t115 57q74 0 118.5 -56.5t44.5 -151.5q0 -101 -43 -159t-120 -58q-74 0 -115.5 56.5t-41.5 156.5zM290 -12q55 0 100.5 20.5t79 58t51.5 89.5t18 114q0 59 -18 110t-51.5 88.5t-79 58t-98.5 20.5q-54 0 -99.5 -20
t-78.5 -57t-51 -88t-18 -112q0 -62 17.5 -114t50.5 -90t78 -58t99 -20z" />
    <glyph glyph-name="oacute" unicode="&#xf3;" horiz-adv-x="583" 
d="M306 592l108 136h-115l-65 -136h72zM132 268q0 98 42 155t115 57q74 0 118.5 -56.5t44.5 -151.5q0 -101 -43 -159t-120 -58q-74 0 -115.5 56.5t-41.5 156.5zM290 -12q55 0 100.5 20.5t79 58t51.5 89.5t18 114q0 59 -18 110t-51.5 88.5t-79 58t-98.5 20.5q-54 0 -99.5 -20
t-78.5 -57t-51 -88t-18 -112q0 -62 17.5 -114t50.5 -90t78 -58t99 -20z" />
    <glyph glyph-name="ocircumflex" unicode="&#xf4;" horiz-adv-x="583" 
d="M346 592h100l-110 136h-93l-106 -136h100l56 83zM132 268q0 98 42 155t115 57q74 0 118.5 -56.5t44.5 -151.5q0 -101 -43 -159t-120 -58q-74 0 -115.5 56.5t-41.5 156.5zM290 -12q55 0 100.5 20.5t79 58t51.5 89.5t18 114q0 59 -18 110t-51.5 88.5t-79 58t-98.5 20.5
q-54 0 -99.5 -20t-78.5 -57t-51 -88t-18 -112q0 -62 17.5 -114t50.5 -90t78 -58t99 -20z" />
    <glyph glyph-name="otilde" unicode="&#xf5;" horiz-adv-x="583" 
d="M193 604q0 16 4.5 25.5t11 14t11.5 5.5t9 1q17 0 40 -12l18 -10q42 -23 74 -23q86 0 94 112h-64q-3 -24 -10.5 -33.5t-24.5 -9.5q-15 0 -39 11l-15 8q-44 22 -74 22q-15 0 -32 -4.5t-32.5 -17t-25.5 -34.5t-10 -55h65zM132 268q0 98 42 155t115 57q74 0 118.5 -56.5
t44.5 -151.5q0 -101 -43 -159t-120 -58q-74 0 -115.5 56.5t-41.5 156.5zM290 -12q55 0 100.5 20.5t79 58t51.5 89.5t18 114q0 59 -18 110t-51.5 88.5t-79 58t-98.5 20.5q-54 0 -99.5 -20t-78.5 -57t-51 -88t-18 -112q0 -62 17.5 -114t50.5 -90t78 -58t99 -20z" />
    <glyph glyph-name="odieresis" unicode="&#xf6;" horiz-adv-x="583" 
d="M246 629v100h-92v-100h92zM428 629v100h-91v-100h91zM132 268q0 98 42 155t115 57q74 0 118.5 -56.5t44.5 -151.5q0 -101 -43 -159t-120 -58q-74 0 -115.5 56.5t-41.5 156.5zM290 -12q55 0 100.5 20.5t79 58t51.5 89.5t18 114q0 59 -18 110t-51.5 88.5t-79 58t-98.5 20.5
q-54 0 -99.5 -20t-78.5 -57t-51 -88t-18 -112q0 -62 17.5 -114t50.5 -90t78 -58t99 -20z" />
    <glyph glyph-name="divide" unicode="&#xf7;" horiz-adv-x="668" 
d="M291 529q0 -19 13 -31.5t29 -12.5q17 0 28.5 12.5t11.5 29.5t-11.5 29t-28.5 12t-29 -11t-13 -28zM291 123q0 -17 13 -29t29 -12q17 0 29 12.5t12 29.5t-12 29t-29 12t-29 -12t-13 -30zM68 293h532v64h-532v-64z" />
    <glyph glyph-name="oslash" unicode="&#xf8;" horiz-adv-x="583" 
d="M43 19l36 -31l52 60q65 -60 160 -60q55 0 100.5 20.5t79 58t51.5 89.5t18 114q0 54 -15 100.5t-42 82.5l55 63l-35 31l-52 -60q-32 29 -72.5 44.5t-85.5 15.5q-54 0 -99.5 -20t-78.5 -57t-51 -88t-18 -112q0 -112 54 -186zM428 389q25 -47 25 -117q0 -101 -43 -159
t-120 -58q-69 0 -109 49zM156 147q-23 49 -23 121q0 98 42 155t115 57q70 0 112 -50z" />
    <glyph glyph-name="ugrave" unicode="&#xf9;" 
d="M297 728h-118l113 -136h71zM21 475h71v-323q0 -74 39 -119.5t103 -45.5q38 0 68.5 11t53.5 29t38 36t32 42v-105h152v63h-73v476h-151v-64h74v-176q0 -82 -11.5 -122t-45.5 -75q-52 -50 -108 -50q-43 0 -68.5 31t-25.5 83v373h-148v-64z" />
    <glyph glyph-name="uacute" unicode="&#xfa;" 
d="M317 592l108 136h-115l-65 -136h72zM21 475h71v-323q0 -74 39 -119.5t103 -45.5q38 0 68.5 11t53.5 29t38 36t32 42v-105h152v63h-73v476h-151v-64h74v-176q0 -82 -11.5 -122t-45.5 -75q-52 -50 -108 -50q-43 0 -68.5 31t-25.5 83v373h-148v-64z" />
    <glyph glyph-name="ucircumflex" unicode="&#xfb;" 
d="M357 592h100l-110 136h-93l-106 -136h100l56 83zM21 475h71v-323q0 -74 39 -119.5t103 -45.5q38 0 68.5 11t53.5 29t38 36t32 42v-105h152v63h-73v476h-151v-64h74v-176q0 -82 -11.5 -122t-45.5 -75q-52 -50 -108 -50q-43 0 -68.5 31t-25.5 83v373h-148v-64z" />
    <glyph glyph-name="udieresis" unicode="&#xfc;" 
d="M237 629v100h-92v-100h92zM419 629v100h-91v-100h91zM21 475h71v-323q0 -74 39 -119.5t103 -45.5q38 0 68.5 11t53.5 29t38 36t32 42v-105h152v63h-73v476h-151v-64h74v-176q0 -82 -11.5 -122t-45.5 -75q-52 -50 -108 -50q-43 0 -68.5 31t-25.5 83v373h-148v-64z" />
    <glyph glyph-name="yacute" unicode="&#xfd;" horiz-adv-x="583" 
d="M306 592l108 136h-115l-65 -136h72zM23 475h60l181 -486v-1q-12 -37 -18.5 -53.5t-14 -25.5t-18 -11.5t-32.5 -2.5q-10 0 -21.5 1t-47.5 5l-4 -65l28 -3q12 -1 26 -2q13 -2 22 -2.5t21 -0.5q27 0 43.5 4t28 15.5t21.5 33t23 59.5l179 535h59v64h-201v-64h64l-124 -379
l-138 379h67v64h-204v-64z" />
    <glyph glyph-name="thorn" unicode="&#xfe;" 
d="M169 310q0 34 12 65t33.5 54.5t49 37t58.5 13.5q68 0 108.5 -60.5t40.5 -161.5q0 -87 -41 -142.5t-105 -55.5q-29 0 -57.5 14t-50.5 37.5t-35 51t-13 54.5v93zM169 737h-153v-63h74v-780h-79v-64h232v64h-74v208q40 -48 79 -77.5t95 -29.5q43 0 81.5 21t68 58.5t46 87
t16.5 104.5q0 59 -16 110t-45 88.5t-68 58.5t-85 21q-33 0 -60 -10t-47 -25.5t-34 -31.5t-29 -37l-2 -2v299z" />
    <glyph glyph-name="ydieresis" unicode="&#xff;" horiz-adv-x="583" 
d="M246 629v100h-92v-100h92zM428 629v100h-91v-100h91zM23 475h60l181 -486v-1q-12 -37 -18.5 -53.5t-14 -25.5t-18 -11.5t-32.5 -2.5q-10 0 -21.5 1t-47.5 5l-4 -65l28 -3q12 -1 26 -2q13 -2 22 -2.5t21 -0.5q27 0 43.5 4t28 15.5t21.5 33t23 59.5l179 535h59v64h-201v-64
h64l-124 -379l-138 379h67v64h-204v-64z" />
    <glyph glyph-name="OE" unicode="&#x152;" horiz-adv-x="1021" 
d="M525 70l-61 -1q-107 0 -160 14t-91 53q-71 73 -71 215q0 92 32 157t93 97q32 16 78 23t126 7h54v-565zM407 705q-133 0 -213 -54q-69 -45 -107 -125t-38 -180q0 -74 24 -138t68.5 -111t105 -72.5t131.5 -25.5l592 1v213h-77v-143h-280v259h260v68h-260v238h268v-132h77
v202h-551z" />
    <glyph glyph-name="oe" unicode="&#x153;" horiz-adv-x="948" 
d="M544 316q4 77 46 120.5t101 43.5q65 0 102 -48t39 -116h-288zM293 483q76 0 120 -59t44 -160q0 -94 -43.5 -153t-113.5 -59q-79 0 -124.5 58t-45.5 158q0 97 45 156t118 59zM823 147q-23 -50 -52.5 -72t-74.5 -22q-58 0 -101 43q-27 29 -39 65.5t-14 96.5h377
q-2 33 -5 55.5t-8 43.5q-22 87 -82 138t-141 51q-54 0 -103.5 -26.5t-83.5 -84.5q-9 14 -16 23t-14 16q-31 34 -76.5 52.5t-96.5 18.5q-67 0 -115 -26.5t-77 -69t-42 -90t-13 -90.5q0 -61 18 -113t51.5 -90t79 -58.5t99.5 -20.5q44 0 77 10.5t56.5 27t37.5 32.5t29 38
q18 -23 27.5 -33.5t19.5 -19.5q30 -25 68.5 -38.5t79.5 -13.5q99 0 163 67q18 18 28.5 36t24.5 54h-82z" />
    <glyph glyph-name="Scaron" unicode="&#x160;" 
d="M256 894h-100l105 -136h94l110 136h-100l-54 -82zM46 214v-214h75v109q13 -18 21 -28t17 -19q35 -37 82 -57t97 -20q47 0 87.5 16t71 46t47 69.5t16.5 85.5q0 72 -43 124q-32 40 -81.5 59.5t-139.5 27.5q-42 4 -63.5 8t-41.5 13q-25 10 -41 36t-16 54q0 52 40 85t103 33
q78 0 135 -54q15 -14 25 -29.5t25 -46.5h71v193h-72v-99q-43 55 -89.5 82.5t-108.5 27.5q-45 0 -83.5 -14.5t-67.5 -41t-44.5 -62.5t-15.5 -78q0 -36 11.5 -67.5t31.5 -51.5q27 -27 45.5 -39t42.5 -20q26 -8 46.5 -11.5t77.5 -8.5q69 -6 99 -19q32 -14 50.5 -43t18.5 -64
q0 -59 -44.5 -98t-113.5 -39q-85 0 -147 68q-17 19 -26.5 36.5t-21.5 50.5h-76z" />
    <glyph glyph-name="scaron" unicode="&#x161;" horiz-adv-x="510" 
d="M209 728h-100l105 -136h94l110 136h-100l-54 -82zM383 453q-14 19 -27 33.5t-32 28.5t-45.5 23t-59.5 9q-76 0 -123.5 -44t-47.5 -114q0 -60 45.5 -97t131.5 -47l30 -4q77 -9 105.5 -27t28.5 -58q0 -43 -34 -71.5t-87 -28.5q-63 0 -112 47q-15 14 -24 28.5t-22 43.5h-61
v-175h63v90l1 -1q18 -23 32 -38t34.5 -30t48 -24t62.5 -9q36 0 68.5 13.5t57 37t38 55t13.5 65.5q0 76 -51.5 113t-167.5 51q-71 8 -98 24.5t-27 52.5q0 37 30.5 62.5t74.5 25.5q67 0 113 -43q13 -12 21.5 -25.5t21.5 -39.5h60v159h-61v-86z" />
    <glyph glyph-name="Ydieresis" unicode="&#x178;" horiz-adv-x="615" 
d="M262 795v100h-92v-100h92zM444 795v100h-91v-100h91zM28 635h65l172 -345v-220h-85v-70h255v70h-82v220l167 345h67v70h-123l-154 -324l-158 324h-124v-70z" />
    <glyph glyph-name="florin" unicode="&#x192;" horiz-adv-x="556" 
d="M366 572l7 23q13 48 28 63.5t49 15.5q33 0 74 -10l10 48l-17 5q-26 7 -41 9t-32 2q-36 0 -60.5 -12.5t-38.5 -32.5t-20.5 -39.5t-13.5 -47.5v-1q-2 -3 -4 -13t-2 -12l-13 -52h-82l-9 -44h82l-126 -582q-11 -49 -74 -49q-15 0 -29.5 2.5t-40.5 8.5l-11 -49q31 -9 49 -12
t40 -3q36 0 60 11t38 29t21.5 38.5t13.5 48.5l121 557h107l11 44h-109z" />
    <glyph glyph-name="circumflex" unicode="&#x2c6;" horiz-adv-x="333" 
d="M221 592h100l-110 136h-93l-106 -136h100l56 83z" />
    <glyph glyph-name="tilde" unicode="&#x2dc;" horiz-adv-x="333" 
d="M68 604q0 16 4.5 25.5t11 14t11.5 5.5t9 1q17 0 40 -12l18 -10q42 -23 74 -23q86 0 94 112h-64q-3 -24 -10.5 -33.5t-24.5 -9.5q-15 0 -39 11l-15 8q-44 22 -74 22q-15 0 -32 -4.5t-32.5 -17t-25.5 -34.5t-10 -55h65z" />
    <glyph glyph-name="endash" unicode="&#x2013;" horiz-adv-x="500" 
d="M-8 222h516v63h-516v-63z" />
    <glyph glyph-name="emdash" unicode="&#x2014;" horiz-adv-x="1000" 
d="M-8 222h1017v63h-1017v-63z" />
    <glyph glyph-name="quoteleft" unicode="&#x2018;" horiz-adv-x="250" 
d="M78 549h92v91h-41q1 41 8.5 54t32.5 17v33q-49 -6 -70.5 -30.5t-21.5 -76.5v-88z" />
    <glyph glyph-name="quoteright" unicode="&#x2019;" horiz-adv-x="250" 
d="M80 647h45q-1 -36 -10 -49.5t-34 -17.5v-35q50 5 70.5 29.5t20.5 79.5v85h-92v-92z" />
    <glyph glyph-name="quotesinglbase" unicode="&#x201a;" horiz-adv-x="250" 
d="M79 0h42q-1 -38 -9.5 -50.5t-33.5 -15.5v-39q50 6 70.5 28.5t20.5 71.5v94h-90v-89z" />
    <glyph glyph-name="quotedblleft" unicode="&#x201c;" horiz-adv-x="313" 
d="M186 550h90v88h-40q1 40 8 53.5t31 20.5v32q-89 -12 -89 -91v-103zM39 550h91v91h-44q2 36 10.5 50t33.5 18v34q-49 -4 -70 -30t-21 -81v-82z" />
    <glyph glyph-name="quotedblright" unicode="&#x201d;" horiz-adv-x="313" 
d="M183 648h46q-1 -37 -10 -50t-35 -18v-33q50 6 70 29.5t20 75.5v87h-91v-91zM37 648h42q-1 -40 -7.5 -52t-32.5 -20v-31q89 12 89 93v101h-91v-91z" />
    <glyph glyph-name="quotedblbase" unicode="&#x201e;" horiz-adv-x="313" 
d="M186 0h42q-1 -40 -9 -53t-33 -16v-33q87 9 87 93v97h-87v-88zM41 0h44q-1 -37 -9.5 -51t-33.5 -19v-33q46 5 66.5 27.5t20.5 68.5v95h-88v-88z" />
    <glyph glyph-name="dagger" unicode="&#x2020;" horiz-adv-x="521" 
d="M223 510l-174 8v-77l172 7l12 -630h57l12 630l170 -7v77l-170 -8v234h-79v-234z" />
    <glyph glyph-name="daggerdbl" unicode="&#x2021;" horiz-adv-x="521" 
d="M219 537l-170 8v-77l172 7l3 -144v-27q1 -10 1 -20q0 -25 -2 -76l-2 -126l-172 8v-77l171 7v-205h78v205l175 -7v77l-177 -8l-2 126q-2 51 -2 76q0 10 1 20v27l3 144l174 -7v77l-172 -8v205h-79v-205z" />
    <glyph glyph-name="bullet" unicode="&#x2022;" horiz-adv-x="500" 
d="M372 349q0 51 -36 87t-86 36t-86 -35.5t-36 -85.5q0 -51 36 -87.5t86 -36.5t86 36t36 86z" />
    <glyph glyph-name="ellipsis" unicode="&#x2026;" horiz-adv-x="969" 
d="M117 0h90v95h-90v-95zM439 0h90v95h-90v-95zM761 0h90v95h-90v-95z" />
    <glyph glyph-name="perthousand" unicode="&#x2030;" horiz-adv-x="1167" 
d="M978 301q44 0 68 -37t24 -106q0 -144 -92 -144q-91 0 -91 144q0 143 91 143zM978 350q-29 0 -56 -11t-48 -34.5t-33.5 -60.5t-12.5 -87q0 -89 40 -140.5t110 -51.5t109.5 51t39.5 141q0 87 -40 139t-109 54zM170 -35h52l390 772h-52zM594 348q-29 0 -55.5 -11t-48 -34
t-34 -60t-12.5 -87q0 -89 40.5 -141t109.5 -52q70 0 109.5 51t39.5 142q0 87 -40 139t-109 53zM593 299q44 0 68.5 -37.5t24.5 -105.5q0 -144 -93 -144q-92 0 -92 144q0 143 92 143zM191 740q-151 0 -151 -201q0 -84 41.5 -134.5t111.5 -50.5q68 0 108 51.5t40 139.5
q0 92 -39.5 143.5t-110.5 51.5zM191 691q93 0 93 -143q0 -145 -96 -145q-44 0 -67.5 37t-23.5 108q0 143 94 143z" />
    <glyph glyph-name="guilsinglleft" unicode="&#x2039;" horiz-adv-x="292" 
d="M264 536h-71l-165 -266l163 -270h70l-164 270z" />
    <glyph glyph-name="guilsinglright" unicode="&#x203a;" horiz-adv-x="292" 
d="M195 270l-164 -270h70l163 270l-165 266h-71z" />
    <glyph glyph-name="trademark" unicode="&#x2122;" horiz-adv-x="940" 
d="M95 673h130v-356h49v356h131v43h-310v-43zM451 317h45v356l112 -356h34l119 356v-356h44v399h-75l-104 -319l-100 319h-75v-399z" />
    </font>
</defs>
</svg>
